<?xml version="1.0" encoding="utf-8"?>
<!-- Generator: Adobe Illustrator 28.4.1, SVG Export Plug-In . SVG Version: 6.00 Build 0)  -->
<svg version="1.1" id="Layer_1" xmlns="http://www.w3.org/2000/svg" xmlns:xlink="http://www.w3.org/1999/xlink" x="0px" y="0px"
	 viewBox="0 0 800 60" style="enable-background:new 0 0 800 60;" xml:space="preserve">
<style type="text/css">
	.st0{fill:#E1E1E1;}
	.st1{fill:#0078D7;}
</style>
<g>
	<g>
		<path class="st0" d="M25.7,43.87c-2.04,0-3.89-0.3-5.55-0.89s-3.08-1.47-4.29-2.63s-2.13-2.59-2.77-4.29
			c-0.65-1.7-0.97-3.66-0.97-5.88s0.32-4.17,0.97-5.86c0.64-1.69,1.57-3.11,2.77-4.27c1.2-1.16,2.63-2.03,4.29-2.63
			c1.65-0.6,3.5-0.89,5.55-0.89c2.36,0,4.46,0.41,6.3,1.22c1.84,0.82,3.32,1.95,4.44,3.41c1.12,1.46,1.78,3.16,1.97,5.11h-7.48
			c-0.2-0.68-0.54-1.28-1.02-1.81c-0.49-0.52-1.08-0.93-1.79-1.22c-0.71-0.29-1.51-0.44-2.41-0.44c-1.19,0-2.24,0.25-3.14,0.75
			c-0.9,0.5-1.6,1.29-2.1,2.37c-0.5,1.08-0.75,2.5-0.75,4.25c0,1.31,0.15,2.45,0.44,3.4c0.29,0.95,0.7,1.72,1.22,2.3
			c0.52,0.58,1.15,1.02,1.88,1.3c0.73,0.28,1.54,0.42,2.45,0.42c0.85,0,1.64-0.15,2.35-0.44c0.72-0.29,1.33-0.7,1.84-1.22
			c0.51-0.52,0.85-1.14,1.02-1.84h7.48c-0.19,1.95-0.86,3.66-2.01,5.13c-1.14,1.47-2.63,2.62-4.47,3.43
			C30.08,43.47,28.01,43.87,25.7,43.87z"/>
		<path class="st0" d="M41.17,43.51V16.9h6.97v10h0.29c0.49-1.22,1.26-2.12,2.32-2.72c1.06-0.6,2.24-0.89,3.56-0.89
			c0.97,0,1.88,0.15,2.72,0.44c0.84,0.29,1.58,0.75,2.21,1.39c0.63,0.63,1.13,1.47,1.48,2.5c0.35,1.03,0.53,2.28,0.53,3.74v12.16
			h-6.97V32.88c0-0.88-0.1-1.61-0.29-2.21c-0.2-0.6-0.5-1.04-0.91-1.33c-0.41-0.29-0.97-0.44-1.68-0.44c-0.73,0-1.33,0.17-1.81,0.51
			s-0.83,0.77-1.08,1.28c-0.24,0.51-0.37,1.03-0.37,1.57v11.24H41.17z"/>
		<path class="st0" d="M64.86,43.51V23.65h6.31l0.26,2.88h0.26c0.44-1.27,1.11-2.1,2.03-2.52c0.91-0.41,1.95-0.62,3.12-0.62
			c0.22,0,0.41,0,0.58,0s0.34,0,0.51,0v6.53c-0.12,0-0.29,0-0.51,0c-0.22,0-0.46,0-0.73,0c-1.27,0-2.25,0.16-2.96,0.49
			c-0.71,0.33-1.2,0.8-1.48,1.42c-0.28,0.62-0.42,1.38-0.42,2.28v9.38H64.86z"/>
		<path class="st0" d="M89.72,43.87c-1.53,0-2.92-0.23-4.16-0.68c-1.24-0.45-2.31-1.12-3.21-2.01c-0.9-0.89-1.59-1.97-2.08-3.25
			c-0.49-1.28-0.73-2.73-0.73-4.36c0-2.07,0.4-3.87,1.19-5.4c0.79-1.53,1.95-2.73,3.47-3.6c1.52-0.86,3.36-1.3,5.53-1.3
			c1.53,0,2.92,0.23,4.16,0.68c1.24,0.45,2.31,1.12,3.21,2.01c0.9,0.89,1.59,1.97,2.08,3.23c0.49,1.27,0.73,2.73,0.73,4.38
			c0,2.04-0.4,3.84-1.19,5.38c-0.79,1.55-1.94,2.75-3.45,3.61C93.76,43.44,91.91,43.87,89.72,43.87z M89.72,38.29
			c0.63,0,1.19-0.16,1.66-0.47c0.47-0.32,0.84-0.82,1.09-1.52c0.26-0.69,0.38-1.6,0.38-2.72c0-0.85-0.07-1.58-0.22-2.17
			c-0.15-0.6-0.36-1.08-0.64-1.46c-0.28-0.38-0.61-0.65-0.99-0.82c-0.38-0.17-0.81-0.26-1.3-0.26c-0.63,0-1.19,0.16-1.66,0.47
			c-0.47,0.32-0.84,0.82-1.09,1.5c-0.26,0.68-0.38,1.59-0.38,2.74c0,0.85,0.07,1.58,0.22,2.17s0.36,1.08,0.64,1.46
			c0.28,0.38,0.61,0.65,1,0.82C88.83,38.2,89.26,38.29,89.72,38.29z"/>
		<path class="st0" d="M102.79,43.51V23.65h6.72l0.26,3.25h0.29c0.49-1.22,1.26-2.12,2.32-2.72c1.06-0.6,2.24-0.89,3.56-0.89
			c0.97,0,1.88,0.15,2.72,0.44c0.84,0.29,1.58,0.75,2.21,1.39c0.63,0.63,1.13,1.47,1.48,2.5c0.35,1.03,0.53,2.28,0.53,3.74v12.16
			h-6.97V32.88c0-0.88-0.1-1.61-0.29-2.21c-0.2-0.6-0.5-1.04-0.91-1.33c-0.41-0.29-0.97-0.44-1.68-0.44c-0.73,0-1.33,0.17-1.81,0.51
			s-0.83,0.77-1.08,1.28c-0.24,0.51-0.37,1.03-0.37,1.57v11.24H102.79z"/>
		<path class="st0" d="M135.61,43.87c-1.53,0-2.92-0.23-4.16-0.68c-1.24-0.45-2.31-1.12-3.21-2.01c-0.9-0.89-1.59-1.97-2.08-3.25
			c-0.49-1.28-0.73-2.73-0.73-4.36c0-2.07,0.4-3.87,1.19-5.4c0.79-1.53,1.95-2.73,3.47-3.6c1.52-0.86,3.36-1.3,5.53-1.3
			c1.53,0,2.92,0.23,4.16,0.68c1.24,0.45,2.31,1.12,3.21,2.01c0.9,0.89,1.59,1.97,2.08,3.23c0.49,1.27,0.73,2.73,0.73,4.38
			c0,2.04-0.4,3.84-1.19,5.38c-0.79,1.55-1.94,2.75-3.45,3.61C139.65,43.44,137.8,43.87,135.61,43.87z M135.61,38.29
			c0.63,0,1.19-0.16,1.66-0.47c0.47-0.32,0.84-0.82,1.09-1.52c0.26-0.69,0.38-1.6,0.38-2.72c0-0.85-0.07-1.58-0.22-2.17
			c-0.15-0.6-0.36-1.08-0.64-1.46c-0.28-0.38-0.61-0.65-0.99-0.82c-0.38-0.17-0.81-0.26-1.3-0.26c-0.63,0-1.19,0.16-1.66,0.47
			c-0.47,0.32-0.84,0.82-1.09,1.5c-0.26,0.68-0.38,1.59-0.38,2.74c0,0.85,0.07,1.58,0.22,2.17s0.36,1.08,0.64,1.46
			c0.28,0.38,0.61,0.65,1,0.82C134.72,38.2,135.14,38.29,135.61,38.29z"/>
		<path class="st1" d="M168.71,43.87c-2.04,0-3.89-0.3-5.55-0.89s-3.08-1.47-4.29-2.63s-2.13-2.59-2.77-4.29
			c-0.65-1.7-0.97-3.66-0.97-5.88s0.32-4.17,0.97-5.86c0.64-1.69,1.57-3.11,2.77-4.27c1.2-1.16,2.63-2.03,4.29-2.63
			c1.65-0.6,3.5-0.89,5.55-0.89c2.36,0,4.46,0.41,6.3,1.22c1.84,0.82,3.32,1.95,4.44,3.41c1.12,1.46,1.78,3.16,1.97,5.11h-7.48
			c-0.2-0.68-0.54-1.28-1.02-1.81c-0.49-0.52-1.08-0.93-1.79-1.22c-0.71-0.29-1.51-0.44-2.41-0.44c-1.19,0-2.24,0.25-3.14,0.75
			c-0.9,0.5-1.6,1.29-2.1,2.37c-0.5,1.08-0.75,2.5-0.75,4.25c0,1.31,0.15,2.45,0.44,3.4c0.29,0.95,0.7,1.72,1.22,2.3
			c0.52,0.58,1.15,1.02,1.88,1.3c0.73,0.28,1.54,0.42,2.45,0.42c0.85,0,1.64-0.15,2.35-0.44c0.72-0.29,1.33-0.7,1.84-1.22
			c0.51-0.52,0.85-1.14,1.02-1.84h7.48c-0.19,1.95-0.86,3.66-2.01,5.13c-1.14,1.47-2.63,2.62-4.47,3.43
			C173.1,43.47,171.03,43.87,168.71,43.87z"/>
		<path class="st1" d="M193.32,43.87c-1.53,0-2.92-0.23-4.16-0.68c-1.24-0.45-2.31-1.12-3.21-2.01c-0.9-0.89-1.59-1.97-2.08-3.25
			c-0.49-1.28-0.73-2.73-0.73-4.36c0-2.07,0.4-3.87,1.19-5.4c0.79-1.53,1.95-2.73,3.47-3.6c1.52-0.86,3.36-1.3,5.53-1.3
			c1.53,0,2.92,0.23,4.16,0.68c1.24,0.45,2.31,1.12,3.21,2.01c0.9,0.89,1.59,1.97,2.08,3.23c0.49,1.27,0.73,2.73,0.73,4.38
			c0,2.04-0.4,3.84-1.19,5.38c-0.79,1.55-1.94,2.75-3.45,3.61C197.36,43.44,195.51,43.87,193.32,43.87z M193.32,38.29
			c0.63,0,1.19-0.16,1.66-0.47c0.47-0.32,0.84-0.82,1.09-1.52c0.26-0.69,0.38-1.6,0.38-2.72c0-0.85-0.07-1.58-0.22-2.17
			c-0.15-0.6-0.36-1.08-0.64-1.46c-0.28-0.38-0.61-0.65-0.99-0.82c-0.38-0.17-0.81-0.26-1.3-0.26c-0.63,0-1.19,0.16-1.66,0.47
			c-0.47,0.32-0.84,0.82-1.09,1.5c-0.26,0.68-0.38,1.59-0.38,2.74c0,0.85,0.07,1.58,0.22,2.17s0.36,1.08,0.64,1.46
			c0.28,0.38,0.61,0.65,1,0.82C192.43,38.2,192.86,38.29,193.32,38.29z"/>
		<path class="st1" d="M206.39,43.51V23.65h6.75l0.22,3.25h0.29c0.44-1.22,1.17-2.12,2.19-2.72s2.15-0.89,3.4-0.89
			c1.29,0,2.5,0.3,3.63,0.91c1.13,0.61,1.96,1.7,2.5,3.29h0.29c0.41-1.41,1.19-2.46,2.32-3.16c1.13-0.69,2.41-1.04,3.85-1.04
			c1.24,0,2.36,0.26,3.36,0.78c1,0.52,1.79,1.38,2.39,2.56c0.6,1.18,0.89,2.76,0.89,4.73v12.16h-6.97V32.88
			c0-0.88-0.09-1.61-0.26-2.21c-0.17-0.6-0.45-1.04-0.84-1.33c-0.39-0.29-0.9-0.44-1.53-0.44c-0.66,0-1.2,0.17-1.64,0.51
			s-0.77,0.77-0.99,1.28c-0.22,0.51-0.33,1.03-0.33,1.57v11.24h-6.97V32.88c0-0.88-0.09-1.61-0.26-2.21
			c-0.17-0.6-0.45-1.04-0.84-1.33c-0.39-0.29-0.9-0.44-1.53-0.44c-0.66,0-1.2,0.17-1.64,0.51c-0.44,0.34-0.77,0.77-0.99,1.28
			c-0.22,0.51-0.33,1.03-0.33,1.57v11.24H206.39z"/>
		<path class="st1" d="M242.09,49.6V23.65h6.64l0.26,2.88h0.36c0.37-0.97,1.06-1.76,2.08-2.35c1.02-0.6,2.2-0.89,3.54-0.89
			c1.22,0,2.31,0.23,3.29,0.69c0.97,0.46,1.81,1.13,2.52,2.01c0.71,0.88,1.25,1.95,1.62,3.23c0.38,1.28,0.57,2.73,0.57,4.36
			c0,2.17-0.33,4.02-0.99,5.57c-0.66,1.55-1.59,2.72-2.79,3.52c-1.2,0.8-2.61,1.21-4.22,1.21c-0.88,0-1.7-0.13-2.46-0.4
			s-1.42-0.65-1.97-1.15c-0.55-0.5-0.94-1.06-1.19-1.7h-0.29v8.98H242.09z M252.2,38.29c0.88,0,1.58-0.19,2.12-0.58
			c0.53-0.39,0.92-0.94,1.17-1.66c0.24-0.72,0.37-1.54,0.37-2.46c0-0.95-0.11-1.78-0.33-2.48c-0.22-0.71-0.58-1.25-1.1-1.64
			c-0.51-0.39-1.19-0.58-2.04-0.58c-0.75,0-1.38,0.16-1.88,0.47c-0.5,0.32-0.86,0.77-1.1,1.35c-0.23,0.58-0.35,1.27-0.35,2.04v1.68
			c0,0.83,0.13,1.53,0.38,2.1c0.26,0.57,0.62,1.01,1.1,1.31C251.01,38.14,251.56,38.29,252.2,38.29z"/>
		<path class="st1" d="M273.01,43.87c-1.19,0-2.28-0.23-3.27-0.69c-0.99-0.46-1.83-1.13-2.54-2.01c-0.71-0.88-1.25-1.95-1.62-3.23
			c-0.38-1.28-0.57-2.73-0.57-4.36c0-2.19,0.33-4.05,1-5.59c0.67-1.53,1.6-2.7,2.79-3.5s2.59-1.2,4.2-1.2c0.9,0,1.73,0.13,2.48,0.4
			c0.75,0.27,1.41,0.65,1.95,1.13c0.55,0.49,0.94,1.06,1.19,1.72h0.36l0.26-2.88h6.64v19.86h-6.64l-0.26-2.88h-0.36
			c-0.37,0.97-1.06,1.76-2.08,2.35C275.52,43.57,274.34,43.87,273.01,43.87z M275.6,38.29c0.78,0,1.41-0.16,1.9-0.47
			s0.85-0.77,1.08-1.35c0.23-0.58,0.35-1.27,0.35-2.04v-1.68c0-0.83-0.13-1.53-0.38-2.1c-0.26-0.57-0.62-1.01-1.1-1.31
			c-0.47-0.3-1.03-0.46-1.66-0.46c-0.88,0-1.58,0.2-2.12,0.58c-0.54,0.39-0.92,0.94-1.17,1.64c-0.24,0.71-0.37,1.53-0.37,2.48
			c0,0.92,0.11,1.75,0.33,2.46c0.22,0.72,0.58,1.27,1.1,1.66S274.74,38.29,275.6,38.29z"/>
		<path class="st1" d="M297.75,43.87c-1.39,0-2.63-0.16-3.74-0.47c-1.11-0.32-2.06-0.77-2.85-1.35c-0.79-0.58-1.41-1.28-1.84-2.1
			c-0.44-0.81-0.66-1.71-0.66-2.68h6.86c0.05,0.41,0.18,0.75,0.38,1.02c0.21,0.27,0.49,0.46,0.84,0.58
			c0.35,0.12,0.75,0.18,1.19,0.18c0.68,0,1.18-0.12,1.5-0.35c0.32-0.23,0.47-0.54,0.47-0.93c0-0.36-0.1-0.63-0.29-0.8
			c-0.2-0.17-0.51-0.31-0.95-0.42s-1.03-0.21-1.79-0.31c-1.78-0.27-3.24-0.63-4.38-1.09c-1.14-0.46-1.99-1.11-2.54-1.95
			c-0.55-0.84-0.82-1.92-0.82-3.23c0-1.34,0.37-2.51,1.11-3.5c0.74-1,1.78-1.78,3.12-2.34c1.34-0.56,2.9-0.84,4.67-0.84
			c1.65,0,3.11,0.26,4.36,0.78c1.25,0.52,2.25,1.25,2.98,2.19c0.73,0.94,1.13,2.03,1.2,3.27h-6.86c0-0.32-0.08-0.58-0.24-0.78
			c-0.16-0.21-0.38-0.37-0.66-0.47c-0.28-0.11-0.61-0.16-1-0.16c-0.51,0-0.92,0.1-1.24,0.31c-0.32,0.21-0.47,0.52-0.47,0.93
			c0,0.34,0.12,0.6,0.35,0.79c0.23,0.18,0.62,0.33,1.17,0.46c0.55,0.12,1.27,0.24,2.17,0.37c1.73,0.22,3.12,0.57,4.18,1.06
			c1.06,0.49,1.83,1.14,2.3,1.97s0.71,1.89,0.71,3.18c0,1.44-0.38,2.65-1.15,3.65s-1.84,1.76-3.23,2.28
			C301.22,43.61,299.6,43.87,297.75,43.87z"/>
		<path class="st1" d="M317.76,43.87c-1.39,0-2.63-0.16-3.74-0.47c-1.11-0.32-2.06-0.77-2.85-1.35c-0.79-0.58-1.41-1.28-1.84-2.1
			c-0.44-0.81-0.66-1.71-0.66-2.68h6.86c0.05,0.41,0.18,0.75,0.38,1.02c0.21,0.27,0.49,0.46,0.84,0.58
			c0.35,0.12,0.75,0.18,1.19,0.18c0.68,0,1.18-0.12,1.5-0.35c0.32-0.23,0.47-0.54,0.47-0.93c0-0.36-0.1-0.63-0.29-0.8
			c-0.2-0.17-0.51-0.31-0.95-0.42s-1.03-0.21-1.79-0.31c-1.78-0.27-3.24-0.63-4.38-1.09c-1.14-0.46-1.99-1.11-2.54-1.95
			c-0.55-0.84-0.82-1.92-0.82-3.23c0-1.34,0.37-2.51,1.11-3.5c0.74-1,1.78-1.78,3.12-2.34c1.34-0.56,2.9-0.84,4.67-0.84
			c1.65,0,3.11,0.26,4.36,0.78c1.25,0.52,2.25,1.25,2.98,2.19c0.73,0.94,1.13,2.03,1.2,3.27h-6.86c0-0.32-0.08-0.58-0.24-0.78
			c-0.16-0.21-0.38-0.37-0.66-0.47c-0.28-0.11-0.61-0.16-1-0.16c-0.51,0-0.92,0.1-1.24,0.31c-0.32,0.21-0.47,0.52-0.47,0.93
			c0,0.34,0.12,0.6,0.35,0.79c0.23,0.18,0.62,0.33,1.17,0.46c0.55,0.12,1.27,0.24,2.17,0.37c1.73,0.22,3.12,0.57,4.18,1.06
			c1.06,0.49,1.83,1.14,2.3,1.97s0.71,1.89,0.71,3.18c0,1.44-0.38,2.65-1.15,3.65s-1.84,1.76-3.23,2.28
			C321.23,43.61,319.61,43.87,317.76,43.87z"/>
		<path class="st0" d="M349.88,43.87c-2.04,0-3.89-0.3-5.55-0.89s-3.08-1.47-4.29-2.63s-2.13-2.59-2.77-4.29
			c-0.65-1.7-0.97-3.66-0.97-5.88s0.32-4.17,0.97-5.86c0.64-1.69,1.57-3.11,2.77-4.27c1.2-1.16,2.63-2.03,4.29-2.63
			c1.65-0.6,3.5-0.89,5.55-0.89c2.36,0,4.46,0.41,6.3,1.22c1.84,0.82,3.32,1.95,4.44,3.41c1.12,1.46,1.78,3.16,1.97,5.11h-7.48
			c-0.2-0.68-0.54-1.28-1.02-1.81c-0.49-0.52-1.08-0.93-1.79-1.22c-0.71-0.29-1.51-0.44-2.41-0.44c-1.19,0-2.24,0.25-3.14,0.75
			c-0.9,0.5-1.6,1.29-2.1,2.37c-0.5,1.08-0.75,2.5-0.75,4.25c0,1.31,0.15,2.45,0.44,3.4c0.29,0.95,0.7,1.72,1.22,2.3
			c0.52,0.58,1.15,1.02,1.88,1.3c0.73,0.28,1.54,0.42,2.45,0.42c0.85,0,1.64-0.15,2.35-0.44c0.72-0.29,1.33-0.7,1.84-1.22
			c0.51-0.52,0.85-1.14,1.02-1.84h7.48c-0.19,1.95-0.86,3.66-2.01,5.13c-1.14,1.47-2.63,2.62-4.47,3.43
			C354.27,43.47,352.19,43.87,349.88,43.87z"/>
		<path class="st0" d="M372.4,43.87c-1.19,0-2.28-0.23-3.27-0.69c-0.99-0.46-1.83-1.13-2.54-2.01c-0.71-0.88-1.25-1.95-1.62-3.23
			c-0.38-1.28-0.57-2.73-0.57-4.36c0-2.19,0.33-4.05,1-5.59c0.67-1.53,1.6-2.7,2.79-3.5s2.59-1.2,4.2-1.2c0.9,0,1.73,0.13,2.48,0.4
			c0.75,0.27,1.41,0.65,1.95,1.13c0.55,0.49,0.94,1.06,1.19,1.72h0.36l0.26-2.88h6.64v19.86h-6.64l-0.26-2.88h-0.36
			c-0.37,0.97-1.06,1.76-2.08,2.35C374.92,43.57,373.74,43.87,372.4,43.87z M375,38.29c0.78,0,1.41-0.16,1.9-0.47
			s0.85-0.77,1.08-1.35c0.23-0.58,0.35-1.27,0.35-2.04v-1.68c0-0.83-0.13-1.53-0.38-2.1c-0.26-0.57-0.62-1.01-1.1-1.31
			c-0.47-0.3-1.03-0.46-1.66-0.46c-0.88,0-1.58,0.2-2.12,0.58c-0.54,0.39-0.92,0.94-1.17,1.64c-0.24,0.71-0.37,1.53-0.37,2.48
			c0,0.92,0.11,1.75,0.33,2.46c0.22,0.72,0.58,1.27,1.1,1.66S374.14,38.29,375,38.29z"/>
		<path class="st0" d="M389.23,43.51V23.65h6.31l0.26,2.88h0.26c0.44-1.27,1.11-2.1,2.03-2.52c0.91-0.41,1.95-0.62,3.12-0.62
			c0.22,0,0.41,0,0.58,0s0.34,0,0.51,0v6.53c-0.12,0-0.29,0-0.51,0s-0.46,0-0.73,0c-1.27,0-2.25,0.16-2.96,0.49
			c-0.71,0.33-1.2,0.8-1.48,1.42c-0.28,0.62-0.42,1.38-0.42,2.28v9.38H389.23z"/>
		<path class="st0" d="M412.01,43.87c-1.19,0-2.28-0.23-3.27-0.69c-0.99-0.46-1.83-1.13-2.54-2.01s-1.25-1.95-1.62-3.23
			c-0.38-1.28-0.57-2.73-0.57-4.36c0-2.19,0.33-4.05,1-5.59c0.67-1.53,1.6-2.7,2.79-3.5s2.59-1.2,4.2-1.2c0.9,0,1.73,0.13,2.48,0.4
			c0.75,0.27,1.41,0.65,1.95,1.13c0.55,0.49,0.94,1.06,1.19,1.72h0.29V16.9h6.97v26.61h-6.64L418,40.62h-0.37
			c-0.36,0.97-1.06,1.76-2.08,2.35C414.53,43.57,413.35,43.87,412.01,43.87z M414.6,38.29c0.78,0,1.41-0.16,1.9-0.47
			c0.49-0.32,0.84-0.77,1.08-1.35s0.35-1.27,0.35-2.04v-1.68c0-0.83-0.13-1.53-0.38-2.1c-0.26-0.57-0.62-1.01-1.09-1.31
			c-0.47-0.3-1.03-0.46-1.66-0.46c-0.88,0-1.58,0.2-2.12,0.58c-0.54,0.39-0.93,0.94-1.17,1.64c-0.24,0.71-0.37,1.53-0.37,2.48
			c0,0.92,0.11,1.75,0.33,2.46s0.58,1.27,1.1,1.66C413.07,38.09,413.75,38.29,414.6,38.29z"/>
		<path class="st0" d="M437.82,43.51V29.23h-2.92v-5.58h2.92v-1.31c0-1.73,0.57-3.07,1.7-4.02c1.13-0.95,2.73-1.42,4.8-1.42h4.49
			v4.49h-2.59c-0.41,0-0.75,0.09-1.02,0.26c-0.27,0.17-0.4,0.51-0.4,1.02v0.99h3.72v5.58h-3.72v14.27H437.82z"/>
		<path class="st0" d="M460.23,43.87c-1.53,0-2.92-0.23-4.16-0.68s-2.31-1.12-3.21-2.01c-0.9-0.89-1.59-1.97-2.08-3.25
			c-0.49-1.28-0.73-2.73-0.73-4.36c0-2.07,0.4-3.87,1.19-5.4s1.95-2.73,3.47-3.6c1.52-0.86,3.36-1.3,5.53-1.3
			c1.53,0,2.92,0.23,4.16,0.68c1.24,0.45,2.31,1.12,3.21,2.01c0.9,0.89,1.59,1.97,2.08,3.23c0.49,1.27,0.73,2.73,0.73,4.38
			c0,2.04-0.4,3.84-1.19,5.38c-0.79,1.55-1.94,2.75-3.45,3.61C464.27,43.44,462.42,43.87,460.23,43.87z M460.23,38.29
			c0.63,0,1.19-0.16,1.66-0.47s0.84-0.82,1.1-1.52c0.25-0.69,0.38-1.6,0.38-2.72c0-0.85-0.07-1.58-0.22-2.17
			c-0.15-0.6-0.36-1.08-0.64-1.46c-0.28-0.38-0.61-0.65-0.99-0.82c-0.38-0.17-0.81-0.26-1.29-0.26c-0.63,0-1.19,0.16-1.66,0.47
			c-0.47,0.32-0.84,0.82-1.1,1.5c-0.25,0.68-0.38,1.59-0.38,2.74c0,0.85,0.07,1.58,0.22,2.17c0.15,0.6,0.36,1.08,0.64,1.46
			c0.28,0.38,0.61,0.65,1,0.82C459.34,38.2,459.77,38.29,460.23,38.29z"/>
		<path class="st0" d="M473.3,43.51V23.65h6.31l0.26,2.88h0.26c0.44-1.27,1.11-2.1,2.03-2.52c0.91-0.41,1.95-0.62,3.12-0.62
			c0.22,0,0.41,0,0.58,0s0.34,0,0.51,0v6.53c-0.12,0-0.29,0-0.51,0s-0.46,0-0.73,0c-1.27,0-2.25,0.16-2.96,0.49
			c-0.71,0.33-1.2,0.8-1.48,1.42c-0.28,0.62-0.42,1.38-0.42,2.28v9.38H473.3z"/>
		<path class="st0" d="M496.62,43.51V16.9h7.41v26.61H496.62z M502.65,33.18V26.9h12.92v6.28H502.65z M514.18,43.51V16.9h7.41v26.61
			H514.18z"/>
		<path class="st0" d="M534.84,43.87c-1.53,0-2.92-0.23-4.16-0.68s-2.31-1.12-3.21-2.01c-0.9-0.89-1.59-1.97-2.08-3.25
			c-0.49-1.28-0.73-2.73-0.73-4.36c0-2.07,0.4-3.87,1.19-5.4s1.95-2.73,3.47-3.6c1.52-0.86,3.36-1.3,5.53-1.3
			c1.53,0,2.92,0.23,4.16,0.68c1.24,0.45,2.31,1.12,3.21,2.01c0.9,0.89,1.59,1.97,2.08,3.23c0.49,1.27,0.73,2.73,0.73,4.38
			c0,2.04-0.4,3.84-1.19,5.38c-0.79,1.55-1.94,2.75-3.45,3.61C538.88,43.44,537.03,43.87,534.84,43.87z M534.84,38.29
			c0.63,0,1.19-0.16,1.66-0.47s0.84-0.82,1.1-1.52c0.25-0.69,0.38-1.6,0.38-2.72c0-0.85-0.07-1.58-0.22-2.17
			c-0.15-0.6-0.36-1.08-0.64-1.46c-0.28-0.38-0.61-0.65-0.99-0.82c-0.38-0.17-0.81-0.26-1.29-0.26c-0.63,0-1.19,0.16-1.66,0.47
			c-0.47,0.32-0.84,0.82-1.1,1.5c-0.25,0.68-0.38,1.59-0.38,2.74c0,0.85,0.07,1.58,0.22,2.17c0.15,0.6,0.36,1.08,0.64,1.46
			c0.28,0.38,0.61,0.65,1,0.82C533.95,38.2,534.38,38.29,534.84,38.29z"/>
		<path class="st0" d="M547.91,43.51V23.65h6.75l0.22,3.25h0.29c0.44-1.22,1.17-2.12,2.19-2.72s2.15-0.89,3.39-0.89
			c1.29,0,2.5,0.3,3.63,0.91c1.13,0.61,1.96,1.7,2.5,3.29h0.29c0.41-1.41,1.19-2.46,2.32-3.16c1.13-0.69,2.42-1.04,3.85-1.04
			c1.24,0,2.36,0.26,3.36,0.78c1,0.52,1.79,1.38,2.39,2.56c0.6,1.18,0.89,2.76,0.89,4.73v12.16h-6.97V32.88
			c0-0.88-0.09-1.61-0.26-2.21c-0.17-0.6-0.45-1.04-0.84-1.33c-0.39-0.29-0.9-0.44-1.53-0.44c-0.66,0-1.21,0.17-1.64,0.51
			c-0.44,0.34-0.77,0.77-0.99,1.28c-0.22,0.51-0.33,1.03-0.33,1.57v11.24h-6.97V32.88c0-0.88-0.08-1.61-0.25-2.21
			c-0.17-0.6-0.45-1.04-0.84-1.33c-0.39-0.29-0.9-0.44-1.53-0.44c-0.66,0-1.21,0.17-1.64,0.51c-0.44,0.34-0.77,0.77-0.99,1.28
			c-0.22,0.51-0.33,1.03-0.33,1.57v11.24H547.91z"/>
		<path class="st0" d="M592.77,43.87c-2.17,0-4.01-0.42-5.53-1.26c-1.52-0.84-2.68-2.02-3.49-3.54c-0.8-1.52-1.21-3.29-1.21-5.31
			c0-2.17,0.41-4.03,1.24-5.6c0.83-1.57,1.99-2.77,3.49-3.61c1.5-0.84,3.24-1.26,5.24-1.26c2.41,0,4.38,0.52,5.91,1.55
			c1.53,1.03,2.63,2.45,3.3,4.25c0.67,1.8,0.88,3.85,0.64,6.13h-12.96c-0.02,0.73,0.1,1.36,0.38,1.88c0.28,0.52,0.68,0.92,1.19,1.19
			c0.51,0.27,1.11,0.4,1.79,0.4c0.8,0,1.44-0.13,1.9-0.4c0.46-0.27,0.78-0.62,0.95-1.06h6.57c-0.17,1.34-0.68,2.5-1.51,3.49
			c-0.84,0.99-1.93,1.76-3.29,2.32C596.04,43.59,594.5,43.87,592.77,43.87z M589.42,31.64l-0.58-0.58h7.3l-0.62,0.55
			c0.05-0.68-0.05-1.25-0.29-1.72s-0.6-0.82-1.06-1.08s-1.01-0.38-1.64-0.38c-0.66,0-1.22,0.13-1.7,0.4
			c-0.47,0.27-0.83,0.65-1.08,1.13C589.5,30.45,589.39,31.01,589.42,31.64z"/>
		<path class="st0" d="M611.24,43.51l8.29-26.61h10.55l8.29,26.61h-7.7l-4.82-17.59l-0.91-3.47h-0.26l-0.91,3.47l-4.82,17.59H611.24
			z M619.75,38.76l1.64-5.62h6.83l1.64,5.62H619.75z"/>
		<path class="st0" d="M648.7,43.87c-1.39,0-2.63-0.16-3.74-0.47c-1.11-0.32-2.06-0.77-2.85-1.35c-0.79-0.58-1.41-1.28-1.84-2.1
			c-0.44-0.81-0.66-1.71-0.66-2.68h6.86c0.05,0.41,0.18,0.75,0.38,1.02s0.49,0.46,0.84,0.58c0.35,0.12,0.75,0.18,1.19,0.18
			c0.68,0,1.18-0.12,1.5-0.35s0.47-0.54,0.47-0.93c0-0.36-0.1-0.63-0.29-0.8c-0.19-0.17-0.51-0.31-0.95-0.42
			c-0.44-0.11-1.03-0.21-1.79-0.31c-1.78-0.27-3.24-0.63-4.38-1.09c-1.14-0.46-1.99-1.11-2.54-1.95c-0.55-0.84-0.82-1.92-0.82-3.23
			c0-1.34,0.37-2.51,1.11-3.5c0.74-1,1.78-1.78,3.12-2.34c1.34-0.56,2.9-0.84,4.67-0.84c1.65,0,3.11,0.26,4.36,0.78
			c1.25,0.52,2.25,1.25,2.97,2.19c0.73,0.94,1.13,2.03,1.21,3.27h-6.86c0-0.32-0.08-0.58-0.24-0.78c-0.16-0.21-0.38-0.37-0.66-0.47
			c-0.28-0.11-0.62-0.16-1-0.16c-0.51,0-0.93,0.1-1.24,0.31c-0.32,0.21-0.47,0.52-0.47,0.93c0,0.34,0.12,0.6,0.35,0.79
			c0.23,0.18,0.62,0.33,1.17,0.46c0.55,0.12,1.27,0.24,2.17,0.37c1.73,0.22,3.12,0.57,4.18,1.06c1.06,0.49,1.83,1.14,2.3,1.97
			s0.71,1.89,0.71,3.18c0,1.44-0.38,2.65-1.15,3.65s-1.84,1.76-3.23,2.28C652.16,43.61,650.54,43.87,648.7,43.87z"/>
		<path class="st0" d="M668.7,43.87c-1.39,0-2.63-0.16-3.74-0.47c-1.11-0.32-2.06-0.77-2.85-1.35c-0.79-0.58-1.41-1.28-1.84-2.1
			c-0.44-0.81-0.66-1.71-0.66-2.68h6.86c0.05,0.41,0.18,0.75,0.38,1.02s0.49,0.46,0.84,0.58c0.35,0.12,0.75,0.18,1.19,0.18
			c0.68,0,1.18-0.12,1.5-0.35s0.47-0.54,0.47-0.93c0-0.36-0.1-0.63-0.29-0.8c-0.19-0.17-0.51-0.31-0.95-0.42
			c-0.44-0.11-1.03-0.21-1.79-0.31c-1.78-0.27-3.24-0.63-4.38-1.09c-1.14-0.46-1.99-1.11-2.54-1.95c-0.55-0.84-0.82-1.92-0.82-3.23
			c0-1.34,0.37-2.51,1.11-3.5c0.74-1,1.78-1.78,3.12-2.34c1.34-0.56,2.9-0.84,4.67-0.84c1.65,0,3.11,0.26,4.36,0.78
			c1.25,0.52,2.25,1.25,2.97,2.19c0.73,0.94,1.13,2.03,1.21,3.27h-6.86c0-0.32-0.08-0.58-0.24-0.78c-0.16-0.21-0.38-0.37-0.66-0.47
			c-0.28-0.11-0.62-0.16-1-0.16c-0.51,0-0.93,0.1-1.24,0.31c-0.32,0.21-0.47,0.52-0.47,0.93c0,0.34,0.12,0.6,0.35,0.79
			c0.23,0.18,0.62,0.33,1.17,0.46c0.55,0.12,1.27,0.24,2.17,0.37c1.73,0.22,3.12,0.57,4.18,1.06c1.06,0.49,1.83,1.14,2.3,1.97
			s0.71,1.89,0.71,3.18c0,1.44-0.38,2.65-1.15,3.65s-1.84,1.76-3.23,2.28C672.17,43.61,670.55,43.87,668.7,43.87z"/>
		<path class="st0" d="M684.29,22.01c-1.02,0-1.87-0.26-2.54-0.78c-0.67-0.52-1-1.27-1-2.25c0-0.97,0.33-1.72,1-2.24
			c0.67-0.52,1.51-0.79,2.54-0.79s1.87,0.26,2.54,0.79c0.67,0.52,1,1.27,1,2.24c0,0.97-0.33,1.72-1,2.25
			C686.15,21.75,685.31,22.01,684.29,22.01z M680.78,43.51V23.65h6.97v19.86H680.78z"/>
		<path class="st0" d="M699.62,43.87c-1.39,0-2.63-0.16-3.74-0.47c-1.11-0.32-2.06-0.77-2.85-1.35c-0.79-0.58-1.41-1.28-1.84-2.1
			c-0.44-0.81-0.66-1.71-0.66-2.68h6.86c0.05,0.41,0.18,0.75,0.38,1.02s0.49,0.46,0.84,0.58c0.35,0.12,0.75,0.18,1.19,0.18
			c0.68,0,1.18-0.12,1.5-0.35s0.47-0.54,0.47-0.93c0-0.36-0.1-0.63-0.29-0.8c-0.19-0.17-0.51-0.31-0.95-0.42
			c-0.44-0.11-1.03-0.21-1.79-0.31c-1.78-0.27-3.24-0.63-4.38-1.09c-1.14-0.46-1.99-1.11-2.54-1.95c-0.55-0.84-0.82-1.92-0.82-3.23
			c0-1.34,0.37-2.51,1.11-3.5c0.74-1,1.78-1.78,3.12-2.34c1.34-0.56,2.9-0.84,4.67-0.84c1.65,0,3.11,0.26,4.36,0.78
			c1.25,0.52,2.25,1.25,2.97,2.19c0.73,0.94,1.13,2.03,1.21,3.27h-6.86c0-0.32-0.08-0.58-0.24-0.78c-0.16-0.21-0.38-0.37-0.66-0.47
			c-0.28-0.11-0.62-0.16-1-0.16c-0.51,0-0.93,0.1-1.24,0.31c-0.32,0.21-0.47,0.52-0.47,0.93c0,0.34,0.12,0.6,0.35,0.79
			c0.23,0.18,0.62,0.33,1.17,0.46c0.55,0.12,1.27,0.24,2.17,0.37c1.73,0.22,3.12,0.57,4.18,1.06c1.06,0.49,1.83,1.14,2.3,1.97
			s0.71,1.89,0.71,3.18c0,1.44-0.38,2.65-1.15,3.65s-1.84,1.76-3.23,2.28C703.09,43.61,701.47,43.87,699.62,43.87z"/>
		<path class="st0" d="M719.18,43.51c-1.92,0-3.32-0.44-4.2-1.33s-1.31-2.29-1.31-4.22v-8.72h-3.32v-5.58h3.32v-5.07l6.97-0.58v5.66
			h3.61v5.58h-3.61v7.41c0,0.51,0.13,0.85,0.4,1.02c0.27,0.17,0.61,0.26,1.02,0.26h2.19v5.58H719.18z"/>
		<path class="st0" d="M734.55,43.87c-1.19,0-2.28-0.23-3.27-0.69c-0.99-0.46-1.83-1.13-2.54-2.01s-1.25-1.95-1.62-3.23
			c-0.38-1.28-0.57-2.73-0.57-4.36c0-2.19,0.33-4.05,1-5.59c0.67-1.53,1.6-2.7,2.79-3.5s2.59-1.2,4.2-1.2c0.9,0,1.73,0.13,2.48,0.4
			c0.75,0.27,1.41,0.65,1.95,1.13c0.55,0.49,0.94,1.06,1.19,1.72h0.37l0.26-2.88h6.64v19.86h-6.64l-0.26-2.88h-0.37
			c-0.36,0.97-1.06,1.76-2.08,2.35C737.07,43.57,735.89,43.87,734.55,43.87z M737.14,38.29c0.78,0,1.41-0.16,1.9-0.47
			c0.49-0.32,0.84-0.77,1.08-1.35s0.35-1.27,0.35-2.04v-1.68c0-0.83-0.13-1.53-0.38-2.1c-0.26-0.57-0.62-1.01-1.09-1.31
			c-0.47-0.3-1.03-0.46-1.66-0.46c-0.88,0-1.58,0.2-2.12,0.58c-0.54,0.39-0.93,0.94-1.17,1.64c-0.24,0.71-0.37,1.53-0.37,2.48
			c0,0.92,0.11,1.75,0.33,2.46s0.58,1.27,1.1,1.66C735.61,38.09,736.29,38.29,737.14,38.29z"/>
		<path class="st0" d="M751.38,43.51V23.65h6.72l0.26,3.25h0.29c0.49-1.22,1.26-2.12,2.32-2.72s2.25-0.89,3.56-0.89
			c0.97,0,1.88,0.15,2.72,0.44s1.58,0.75,2.21,1.39c0.63,0.63,1.12,1.47,1.48,2.5c0.35,1.03,0.53,2.28,0.53,3.74v12.16h-6.97V32.88
			c0-0.88-0.1-1.61-0.29-2.21c-0.2-0.6-0.5-1.04-0.91-1.33s-0.97-0.44-1.68-0.44c-0.73,0-1.33,0.17-1.81,0.51s-0.83,0.77-1.08,1.28
			c-0.24,0.51-0.37,1.03-0.37,1.57v11.24H751.38z"/>
		<path class="st0" d="M782.55,43.51c-1.92,0-3.32-0.44-4.2-1.33s-1.31-2.29-1.31-4.22v-8.72h-3.32v-5.58h3.32v-5.07l6.97-0.58v5.66
			h3.61v5.58h-3.61v7.41c0,0.51,0.13,0.85,0.4,1.02c0.27,0.17,0.61,0.26,1.02,0.26h2.19v5.58H782.55z"/>
	</g>
</g>
</svg>
