<?xml version="1.0" encoding="utf-8"?>
<!-- Generator: Adobe Illustrator 28.4.1, SVG Export Plug-In . SVG Version: 6.00 Build 0)  -->
<svg version="1.1" id="Layer_1" xmlns="http://www.w3.org/2000/svg" xmlns:xlink="http://www.w3.org/1999/xlink" x="0px" y="0px"
	 viewBox="0 0 800 60" style="enable-background:new 0 0 800 60;" xml:space="preserve">
<style type="text/css">
	.st0{fill:#E1E1E1;}
	.st1{fill:#0078D7;}
</style>
<g>
	<g>
		<path class="st0" d="M26.45,44.72c-2.19,0-4.17-0.32-5.95-0.96c-1.77-0.64-3.3-1.58-4.6-2.82c-1.29-1.24-2.28-2.77-2.97-4.6
			c-0.69-1.83-1.04-3.92-1.04-6.3s0.35-4.46,1.04-6.28c0.69-1.81,1.68-3.34,2.97-4.58c1.29-1.24,2.82-2.18,4.6-2.82
			c1.77-0.64,3.75-0.96,5.95-0.96c2.53,0,4.78,0.44,6.75,1.31c1.97,0.87,3.55,2.09,4.75,3.66c1.2,1.56,1.9,3.39,2.11,5.48h-8.02
			c-0.21-0.73-0.57-1.38-1.1-1.94c-0.52-0.56-1.16-1-1.92-1.31c-0.76-0.31-1.62-0.47-2.58-0.47c-1.28,0-2.4,0.27-3.36,0.8
			c-0.96,0.54-1.71,1.38-2.25,2.54c-0.53,1.16-0.8,2.68-0.8,4.56c0,1.41,0.16,2.62,0.47,3.64s0.75,1.84,1.31,2.46
			c0.56,0.63,1.23,1.09,2.01,1.39c0.78,0.3,1.66,0.45,2.62,0.45c0.91,0,1.75-0.16,2.52-0.47c0.77-0.31,1.43-0.75,1.98-1.31
			c0.55-0.56,0.91-1.22,1.1-1.97h8.02c-0.21,2.09-0.93,3.92-2.15,5.5c-1.23,1.58-2.82,2.8-4.79,3.68
			C31.14,44.29,28.92,44.72,26.45,44.72z"/>
		<path class="st0" d="M43.03,44.33V15.82h7.47v10.72h0.31c0.52-1.3,1.35-2.27,2.48-2.91c1.13-0.64,2.41-0.96,3.81-0.96
			c1.04,0,2.01,0.16,2.91,0.47c0.9,0.31,1.69,0.81,2.37,1.49c0.68,0.68,1.21,1.57,1.58,2.68c0.38,1.11,0.57,2.44,0.57,4.01v13.02
			h-7.47V32.95c0-0.94-0.1-1.73-0.31-2.37c-0.21-0.64-0.53-1.11-0.98-1.43c-0.44-0.31-1.04-0.47-1.8-0.47
			c-0.78,0-1.43,0.18-1.94,0.55c-0.51,0.37-0.89,0.82-1.15,1.37c-0.26,0.55-0.39,1.11-0.39,1.68v12.05H43.03z"/>
		<path class="st0" d="M68.41,44.33V23.05h6.77l0.27,3.09h0.27c0.47-1.36,1.19-2.26,2.17-2.7c0.98-0.44,2.09-0.67,3.34-0.67
			c0.23,0,0.44,0,0.63,0c0.18,0,0.37,0,0.55,0v7c-0.13,0-0.31,0-0.55,0c-0.23,0-0.5,0-0.78,0c-1.36,0-2.41,0.18-3.17,0.53
			c-0.76,0.35-1.28,0.86-1.58,1.53c-0.3,0.67-0.45,1.48-0.45,2.44v10.05H68.41z"/>
		<path class="st0" d="M95.05,44.72c-1.64,0-3.13-0.24-4.46-0.72c-1.33-0.48-2.48-1.2-3.44-2.15c-0.96-0.95-1.71-2.11-2.23-3.48
			c-0.52-1.37-0.78-2.93-0.78-4.67c0-2.22,0.42-4.15,1.27-5.79c0.85-1.64,2.09-2.93,3.72-3.85c1.63-0.93,3.6-1.39,5.93-1.39
			c1.64,0,3.13,0.24,4.46,0.72c1.33,0.48,2.48,1.2,3.44,2.15c0.96,0.95,1.71,2.11,2.23,3.46c0.52,1.36,0.78,2.92,0.78,4.69
			c0,2.19-0.42,4.11-1.27,5.77c-0.85,1.66-2.08,2.95-3.7,3.87S97.39,44.72,95.05,44.72z M95.05,38.74c0.68,0,1.27-0.17,1.78-0.51
			c0.51-0.34,0.9-0.88,1.17-1.62c0.27-0.74,0.41-1.71,0.41-2.91c0-0.91-0.08-1.69-0.23-2.33c-0.16-0.64-0.38-1.16-0.68-1.56
			c-0.3-0.4-0.65-0.7-1.06-0.88c-0.4-0.18-0.87-0.27-1.39-0.27c-0.68,0-1.27,0.17-1.78,0.51c-0.51,0.34-0.9,0.87-1.17,1.6
			c-0.27,0.73-0.41,1.71-0.41,2.93c0,0.91,0.08,1.69,0.23,2.33c0.16,0.64,0.38,1.16,0.68,1.56c0.3,0.41,0.66,0.7,1.08,0.88
			C94.09,38.65,94.55,38.74,95.05,38.74z"/>
		<path class="st0" d="M109.05,44.33V23.05h7.2l0.27,3.48h0.31c0.52-1.3,1.35-2.27,2.48-2.91c1.13-0.64,2.41-0.96,3.81-0.96
			c1.04,0,2.01,0.16,2.91,0.47c0.9,0.31,1.69,0.81,2.37,1.49c0.68,0.68,1.21,1.57,1.58,2.68c0.38,1.11,0.57,2.44,0.57,4.01v13.02
			h-7.47V32.95c0-0.94-0.1-1.73-0.31-2.37c-0.21-0.64-0.53-1.11-0.98-1.43c-0.44-0.31-1.04-0.47-1.8-0.47
			c-0.78,0-1.43,0.18-1.94,0.55c-0.51,0.37-0.89,0.82-1.15,1.37c-0.26,0.55-0.39,1.11-0.39,1.68v12.05H109.05z"/>
		<path class="st0" d="M144.21,44.72c-1.64,0-3.13-0.24-4.46-0.72c-1.33-0.48-2.48-1.2-3.44-2.15c-0.96-0.95-1.71-2.11-2.23-3.48
			c-0.52-1.37-0.78-2.93-0.78-4.67c0-2.22,0.42-4.15,1.27-5.79c0.85-1.64,2.09-2.93,3.72-3.85c1.63-0.93,3.6-1.39,5.93-1.39
			c1.64,0,3.13,0.24,4.46,0.72c1.33,0.48,2.48,1.2,3.44,2.15c0.96,0.95,1.71,2.11,2.23,3.46c0.52,1.36,0.78,2.92,0.78,4.69
			c0,2.19-0.42,4.11-1.27,5.77c-0.85,1.66-2.08,2.95-3.7,3.87S146.56,44.72,144.21,44.72z M144.21,38.74c0.68,0,1.27-0.17,1.78-0.51
			c0.51-0.34,0.9-0.88,1.17-1.62c0.27-0.74,0.41-1.71,0.41-2.91c0-0.91-0.08-1.69-0.23-2.33c-0.16-0.64-0.38-1.16-0.68-1.56
			c-0.3-0.4-0.65-0.7-1.06-0.88c-0.4-0.18-0.87-0.27-1.39-0.27c-0.68,0-1.27,0.17-1.78,0.51c-0.51,0.34-0.9,0.87-1.17,1.6
			c-0.27,0.73-0.41,1.71-0.41,2.93c0,0.91,0.08,1.69,0.23,2.33c0.16,0.64,0.38,1.16,0.68,1.56c0.3,0.41,0.66,0.7,1.08,0.88
			C143.26,38.65,143.71,38.74,144.21,38.74z"/>
		<path class="st1" d="M178.43,44.72c-2.01,0-3.83-0.32-5.46-0.96c-1.63-0.64-3.03-1.57-4.2-2.8s-2.08-2.71-2.72-4.46
			c-0.64-1.75-0.96-3.73-0.96-5.95c0-2.42,0.36-4.58,1.08-6.45c0.72-1.88,1.74-3.46,3.07-4.75c1.33-1.29,2.91-2.27,4.75-2.93
			c1.84-0.66,3.89-1,6.16-1c2.61,0,4.91,0.42,6.9,1.27c1.99,0.85,3.61,2.03,4.85,3.56s1.98,3.33,2.21,5.42h-8.06
			c-0.23-0.7-0.64-1.32-1.21-1.84c-0.57-0.52-1.27-0.93-2.07-1.23c-0.81-0.3-1.7-0.45-2.66-0.45c-1.56,0-2.86,0.34-3.87,1.02
			c-1.02,0.68-1.77,1.63-2.27,2.85c-0.5,1.23-0.74,2.66-0.74,4.3c0,1.33,0.16,2.49,0.47,3.48c0.31,0.99,0.76,1.81,1.35,2.46
			c0.59,0.65,1.29,1.14,2.11,1.47c0.82,0.33,1.73,0.49,2.72,0.49c1.23,0,2.3-0.2,3.23-0.61c0.93-0.4,1.64-0.96,2.15-1.68
			c0.51-0.72,0.76-1.56,0.76-2.52v-0.7l1.45,1.29h-7.82v-5.63h14.78v15.96h-6.3l-0.31-3.6h-0.27c-0.42,0.78-1.08,1.47-1.99,2.07
			c-0.91,0.6-1.98,1.07-3.21,1.41C181.12,44.55,179.81,44.72,178.43,44.72z"/>
		<path class="st1" d="M205.77,44.72c-1.28,0-2.44-0.25-3.5-0.74c-1.06-0.5-1.96-1.21-2.72-2.15c-0.76-0.94-1.34-2.09-1.74-3.46
			s-0.61-2.93-0.61-4.67c0-2.35,0.36-4.34,1.08-5.98c0.72-1.64,1.71-2.89,2.99-3.75c1.28-0.86,2.78-1.29,4.5-1.29
			c0.96,0,1.85,0.14,2.66,0.43c0.81,0.29,1.51,0.69,2.09,1.21c0.59,0.52,1.01,1.13,1.27,1.84h0.39l0.27-3.09h7.12v21.28h-7.12
			l-0.27-3.09h-0.39c-0.39,1.04-1.13,1.88-2.23,2.52S207.2,44.72,205.77,44.72z M208.55,38.74c0.83,0,1.51-0.17,2.03-0.51
			c0.52-0.34,0.91-0.82,1.15-1.45c0.25-0.63,0.37-1.36,0.37-2.19v-1.8c0-0.89-0.14-1.64-0.41-2.25c-0.27-0.61-0.67-1.08-1.17-1.41
			c-0.51-0.33-1.1-0.49-1.78-0.49c-0.94,0-1.7,0.21-2.27,0.63c-0.57,0.42-0.99,1-1.25,1.76c-0.26,0.76-0.39,1.64-0.39,2.66
			c0,0.99,0.12,1.87,0.35,2.64c0.23,0.77,0.63,1.36,1.17,1.78C206.91,38.53,207.63,38.74,208.55,38.74z"/>
		<path class="st1" d="M231,44.72c-1.67,0-3.06-0.32-4.19-0.96s-1.96-1.58-2.5-2.82c-0.55-1.24-0.82-2.73-0.82-4.48V23.05h7.47
			v11.38c0,0.94,0.1,1.72,0.31,2.35c0.21,0.63,0.54,1.1,1,1.43c0.46,0.33,1.05,0.49,1.78,0.49c0.78,0,1.43-0.18,1.94-0.55
			c0.51-0.37,0.89-0.82,1.15-1.37c0.26-0.55,0.39-1.11,0.39-1.68V23.05H245v21.28h-7.2l-0.27-3.48h-0.31
			c-0.5,1.28-1.3,2.24-2.42,2.89C233.67,44.39,232.41,44.72,231,44.72z"/>
		<path class="st1" d="M258.42,51.25c-2.03,0-3.77-0.29-5.2-0.86c-1.43-0.57-2.55-1.38-3.34-2.41c-0.8-1.03-1.23-2.22-1.31-3.58h7.2
			c0.05,0.31,0.2,0.59,0.45,0.84c0.25,0.25,0.57,0.44,0.98,0.59c0.4,0.14,0.88,0.21,1.43,0.21c0.99,0,1.75-0.14,2.29-0.41
			c0.53-0.27,0.91-0.66,1.11-1.15c0.21-0.5,0.31-1.07,0.31-1.72v-2.66h-0.35c-0.37,0.91-1.06,1.66-2.09,2.23
			c-1.03,0.57-2.22,0.86-3.58,0.86c-1.23,0-2.33-0.23-3.32-0.68c-0.99-0.46-1.84-1.12-2.56-2c-0.72-0.87-1.27-1.94-1.66-3.21
			s-0.59-2.72-0.59-4.36c0-2.16,0.34-4.02,1.02-5.55c0.68-1.54,1.63-2.71,2.86-3.52c1.23-0.81,2.65-1.21,4.26-1.21
			c1.25,0,2.41,0.27,3.46,0.8c1.06,0.53,1.79,1.3,2.21,2.29h0.39l0.2-2.7h7.24V41.2c0,2.5-0.47,4.49-1.41,5.96
			c-0.94,1.47-2.26,2.52-3.97,3.15C262.71,50.94,260.71,51.25,258.42,51.25z M259.16,37.21c0.73,0,1.32-0.14,1.78-0.43
			c0.46-0.29,0.79-0.69,1.02-1.21c0.22-0.52,0.33-1.13,0.33-1.84v-1.56c0-0.78-0.12-1.43-0.37-1.96c-0.25-0.52-0.59-0.91-1.04-1.17
			c-0.44-0.26-0.95-0.39-1.53-0.39c-0.86,0-1.55,0.18-2.07,0.55s-0.9,0.87-1.13,1.53c-0.23,0.65-0.35,1.4-0.35,2.23
			c0,0.83,0.1,1.57,0.31,2.21c0.21,0.64,0.56,1.14,1.06,1.51C257.66,37.03,258.32,37.21,259.16,37.21z"/>
		<path class="st1" d="M283.8,44.72c-2.32,0-4.3-0.45-5.93-1.35c-1.63-0.9-2.88-2.16-3.74-3.79s-1.29-3.53-1.29-5.69
			c0-2.32,0.44-4.32,1.33-6c0.89-1.68,2.13-2.97,3.74-3.87s3.47-1.35,5.61-1.35c2.58,0,4.69,0.55,6.34,1.66
			c1.64,1.11,2.82,2.63,3.54,4.56c0.72,1.93,0.94,4.12,0.68,6.57H280.2c-0.03,0.78,0.11,1.45,0.41,2.01
			c0.3,0.56,0.72,0.98,1.27,1.27s1.19,0.43,1.92,0.43c0.86,0,1.54-0.14,2.03-0.43c0.5-0.29,0.83-0.67,1.02-1.13h7.04
			c-0.18,1.43-0.72,2.68-1.62,3.74s-2.07,1.88-3.52,2.48S285.65,44.72,283.8,44.72z M280.2,31.62l-0.63-0.63h7.82l-0.66,0.59
			c0.05-0.73-0.05-1.34-0.31-1.84c-0.26-0.5-0.64-0.88-1.13-1.15c-0.5-0.27-1.08-0.41-1.76-0.41c-0.7,0-1.31,0.14-1.82,0.43
			c-0.51,0.29-0.89,0.69-1.15,1.21C280.29,30.34,280.17,30.94,280.2,31.62z"/>
		<path class="st0" d="M318.8,44.72c-2.19,0-4.17-0.32-5.95-0.96c-1.77-0.64-3.3-1.58-4.6-2.82c-1.29-1.24-2.28-2.77-2.97-4.6
			c-0.69-1.83-1.04-3.92-1.04-6.3s0.35-4.46,1.04-6.28c0.69-1.81,1.68-3.34,2.97-4.58c1.29-1.24,2.82-2.18,4.6-2.82
			c1.77-0.64,3.75-0.96,5.95-0.96c2.53,0,4.78,0.44,6.75,1.31c1.97,0.87,3.55,2.09,4.75,3.66c1.2,1.56,1.9,3.39,2.11,5.48h-8.02
			c-0.21-0.73-0.57-1.38-1.1-1.94c-0.52-0.56-1.16-1-1.92-1.31c-0.76-0.31-1.62-0.47-2.58-0.47c-1.28,0-2.4,0.27-3.36,0.8
			c-0.96,0.54-1.71,1.38-2.25,2.54c-0.53,1.16-0.8,2.68-0.8,4.56c0,1.41,0.16,2.62,0.47,3.64s0.75,1.84,1.31,2.46
			c0.56,0.63,1.23,1.09,2.01,1.39c0.78,0.3,1.66,0.45,2.62,0.45c0.91,0,1.75-0.16,2.52-0.47c0.77-0.31,1.43-0.75,1.98-1.31
			c0.55-0.56,0.91-1.22,1.1-1.97h8.02c-0.21,2.09-0.93,3.92-2.15,5.5c-1.23,1.58-2.82,2.8-4.79,3.68
			C323.5,44.29,321.28,44.72,318.8,44.72z"/>
		<path class="st0" d="M342.94,44.72c-1.28,0-2.44-0.25-3.5-0.74c-1.06-0.5-1.96-1.21-2.72-2.15c-0.76-0.94-1.34-2.09-1.74-3.46
			s-0.61-2.93-0.61-4.67c0-2.35,0.36-4.34,1.08-5.98c0.72-1.64,1.71-2.89,2.99-3.75c1.28-0.86,2.78-1.29,4.5-1.29
			c0.96,0,1.85,0.14,2.66,0.43c0.81,0.29,1.51,0.69,2.09,1.21c0.59,0.52,1.01,1.13,1.27,1.84h0.39l0.27-3.09h7.12v21.28h-7.12
			l-0.27-3.09h-0.39c-0.39,1.04-1.13,1.88-2.23,2.52S344.37,44.72,342.94,44.72z M345.71,38.74c0.83,0,1.51-0.17,2.03-0.51
			c0.52-0.34,0.91-0.82,1.15-1.45c0.25-0.63,0.37-1.36,0.37-2.19v-1.8c0-0.89-0.14-1.64-0.41-2.25c-0.27-0.61-0.67-1.08-1.17-1.41
			c-0.51-0.33-1.1-0.49-1.78-0.49c-0.94,0-1.7,0.21-2.27,0.63c-0.57,0.42-0.99,1-1.25,1.76c-0.26,0.76-0.39,1.64-0.39,2.66
			c0,0.99,0.12,1.87,0.35,2.64c0.23,0.77,0.63,1.36,1.17,1.78C344.07,38.53,344.8,38.74,345.71,38.74z"/>
		<path class="st0" d="M360.97,44.33V23.05h6.77l0.27,3.09h0.27c0.47-1.36,1.19-2.26,2.17-2.7c0.98-0.44,2.09-0.67,3.34-0.67
			c0.23,0,0.44,0,0.63,0c0.18,0,0.37,0,0.55,0v7c-0.13,0-0.31,0-0.55,0c-0.23,0-0.5,0-0.78,0c-1.36,0-2.41,0.18-3.17,0.53
			c-0.76,0.35-1.28,0.86-1.58,1.53c-0.3,0.67-0.45,1.48-0.45,2.44v10.05H360.97z"/>
		<path class="st0" d="M385.37,44.72c-1.28,0-2.44-0.25-3.5-0.74c-1.06-0.5-1.96-1.21-2.72-2.15c-0.76-0.94-1.34-2.09-1.74-3.46
			s-0.61-2.93-0.61-4.67c0-2.35,0.36-4.34,1.08-5.98c0.72-1.64,1.71-2.89,2.99-3.75c1.28-0.86,2.78-1.29,4.5-1.29
			c0.96,0,1.85,0.14,2.66,0.43c0.81,0.29,1.51,0.69,2.09,1.21c0.59,0.52,1.01,1.13,1.27,1.84h0.31V15.82h7.47v28.51h-7.12
			l-0.27-3.09h-0.39c-0.39,1.04-1.13,1.88-2.23,2.52S386.81,44.72,385.37,44.72z M388.15,38.74c0.83,0,1.51-0.17,2.03-0.51
			c0.52-0.34,0.91-0.82,1.15-1.45c0.25-0.63,0.37-1.36,0.37-2.19v-1.8c0-0.89-0.14-1.64-0.41-2.25c-0.27-0.61-0.67-1.08-1.17-1.41
			c-0.51-0.33-1.1-0.49-1.78-0.49c-0.94,0-1.7,0.21-2.27,0.63c-0.57,0.42-0.99,1-1.25,1.76c-0.26,0.76-0.39,1.64-0.39,2.66
			c0,0.99,0.12,1.87,0.35,2.64c0.23,0.77,0.63,1.36,1.17,1.78C386.51,38.53,387.24,38.74,388.15,38.74z"/>
		<path class="st0" d="M413.02,44.33V29.04h-3.13v-5.98h3.13v-1.41c0-1.85,0.61-3.29,1.82-4.3c1.21-1.02,2.93-1.53,5.14-1.53h4.81
			v4.81h-2.78c-0.44,0-0.81,0.09-1.1,0.27c-0.29,0.18-0.43,0.55-0.43,1.1v1.06h3.99v5.98h-3.99v15.29H413.02z"/>
		<path class="st0" d="M437.04,44.72c-1.64,0-3.13-0.24-4.46-0.72c-1.33-0.48-2.48-1.2-3.44-2.15s-1.71-2.11-2.23-3.48
			s-0.78-2.93-0.78-4.67c0-2.22,0.42-4.15,1.27-5.79c0.85-1.64,2.09-2.93,3.72-3.85c1.63-0.93,3.6-1.39,5.92-1.39
			c1.64,0,3.13,0.24,4.46,0.72c1.33,0.48,2.48,1.2,3.44,2.15c0.96,0.95,1.71,2.11,2.23,3.46c0.52,1.36,0.78,2.92,0.78,4.69
			c0,2.19-0.42,4.11-1.27,5.77c-0.85,1.66-2.08,2.95-3.7,3.87C441.37,44.26,439.38,44.72,437.04,44.72z M437.04,38.74
			c0.68,0,1.27-0.17,1.78-0.51c0.51-0.34,0.9-0.88,1.17-1.62c0.27-0.74,0.41-1.71,0.41-2.91c0-0.91-0.08-1.69-0.23-2.33
			c-0.16-0.64-0.39-1.16-0.68-1.56c-0.3-0.4-0.65-0.7-1.06-0.88c-0.4-0.18-0.87-0.27-1.39-0.27c-0.68,0-1.27,0.17-1.78,0.51
			s-0.9,0.87-1.17,1.6c-0.27,0.73-0.41,1.71-0.41,2.93c0,0.91,0.08,1.69,0.23,2.33c0.16,0.64,0.38,1.16,0.68,1.56
			c0.3,0.41,0.66,0.7,1.08,0.88C436.08,38.65,436.54,38.74,437.04,38.74z"/>
		<path class="st0" d="M451.04,44.33V23.05h6.77l0.27,3.09h0.27c0.47-1.36,1.19-2.26,2.17-2.7s2.09-0.67,3.34-0.67
			c0.24,0,0.44,0,0.63,0s0.37,0,0.55,0v7c-0.13,0-0.31,0-0.55,0c-0.23,0-0.5,0-0.78,0c-1.36,0-2.41,0.18-3.17,0.53
			c-0.76,0.35-1.28,0.86-1.58,1.53s-0.45,1.48-0.45,2.44v10.05H451.04z"/>
		<path class="st0" d="M476.03,44.33V15.82h7.94v28.51H476.03z M482.49,33.26v-6.73h13.85v6.73H482.49z M494.84,44.33V15.82h7.94
			v28.51H494.84z"/>
		<path class="st0" d="M516.98,44.72c-1.64,0-3.13-0.24-4.46-0.72c-1.33-0.48-2.48-1.2-3.44-2.15s-1.71-2.11-2.23-3.48
			s-0.78-2.93-0.78-4.67c0-2.22,0.42-4.15,1.27-5.79c0.85-1.64,2.09-2.93,3.72-3.85c1.63-0.93,3.6-1.39,5.92-1.39
			c1.64,0,3.13,0.24,4.46,0.72c1.33,0.48,2.48,1.2,3.44,2.15c0.96,0.95,1.71,2.11,2.23,3.46c0.52,1.36,0.78,2.92,0.78,4.69
			c0,2.19-0.42,4.11-1.27,5.77c-0.85,1.66-2.08,2.95-3.7,3.87C521.31,44.26,519.33,44.72,516.98,44.72z M516.98,38.74
			c0.68,0,1.27-0.17,1.78-0.51c0.51-0.34,0.9-0.88,1.17-1.62c0.27-0.74,0.41-1.71,0.41-2.91c0-0.91-0.08-1.69-0.23-2.33
			c-0.16-0.64-0.39-1.16-0.68-1.56c-0.3-0.4-0.65-0.7-1.06-0.88c-0.4-0.18-0.87-0.27-1.39-0.27c-0.68,0-1.27,0.17-1.78,0.51
			s-0.9,0.87-1.17,1.6c-0.27,0.73-0.41,1.71-0.41,2.93c0,0.91,0.08,1.69,0.23,2.33c0.16,0.64,0.38,1.16,0.68,1.56
			c0.3,0.41,0.66,0.7,1.08,0.88C516.03,38.65,516.49,38.74,516.98,38.74z"/>
		<path class="st0" d="M530.98,44.33V23.05h7.24l0.23,3.48h0.31c0.47-1.3,1.25-2.27,2.35-2.91c1.09-0.64,2.31-0.96,3.64-0.96
			c1.38,0,2.68,0.33,3.89,0.98c1.21,0.65,2.11,1.83,2.68,3.52h0.31c0.44-1.51,1.27-2.64,2.48-3.38c1.21-0.74,2.59-1.11,4.13-1.11
			c1.33,0,2.53,0.28,3.6,0.84c1.07,0.56,1.92,1.47,2.56,2.74c0.64,1.27,0.96,2.95,0.96,5.06v13.02h-7.47V32.95
			c0-0.94-0.09-1.73-0.27-2.37s-0.48-1.11-0.9-1.43c-0.42-0.31-0.96-0.47-1.64-0.47c-0.7,0-1.29,0.18-1.76,0.55
			c-0.47,0.37-0.82,0.82-1.06,1.37c-0.23,0.55-0.35,1.11-0.35,1.68v12.05h-7.47V32.95c0-0.94-0.09-1.73-0.27-2.37
			c-0.18-0.64-0.48-1.11-0.9-1.43c-0.42-0.31-0.96-0.47-1.64-0.47c-0.7,0-1.29,0.18-1.76,0.55c-0.47,0.37-0.82,0.82-1.06,1.37
			c-0.23,0.55-0.35,1.11-0.35,1.68v12.05H530.98z"/>
		<path class="st0" d="M579.05,44.72c-2.32,0-4.3-0.45-5.93-1.35c-1.63-0.9-2.88-2.16-3.74-3.79s-1.29-3.53-1.29-5.69
			c0-2.32,0.44-4.32,1.33-6c0.89-1.68,2.13-2.97,3.74-3.87s3.47-1.35,5.61-1.35c2.58,0,4.69,0.55,6.34,1.66
			c1.64,1.11,2.82,2.63,3.54,4.56c0.72,1.93,0.94,4.12,0.68,6.57h-13.88c-0.03,0.78,0.11,1.45,0.41,2.01
			c0.3,0.56,0.72,0.98,1.27,1.27s1.19,0.43,1.92,0.43c0.86,0,1.54-0.14,2.03-0.43s0.83-0.67,1.02-1.13h7.04
			c-0.18,1.43-0.72,2.68-1.62,3.74c-0.9,1.06-2.07,1.88-3.52,2.48S580.9,44.72,579.05,44.72z M575.45,31.62l-0.63-0.63h7.82
			l-0.67,0.59c0.05-0.73-0.05-1.34-0.31-1.84c-0.26-0.5-0.64-0.88-1.13-1.15s-1.08-0.41-1.76-0.41c-0.7,0-1.31,0.14-1.82,0.43
			c-0.51,0.29-0.89,0.69-1.15,1.21C575.54,30.34,575.43,30.94,575.45,31.62z"/>
		<path class="st0" d="M598.84,44.33l8.88-28.51h11.3l8.88,28.51h-8.25l-5.16-18.85l-0.98-3.72h-0.27l-0.98,3.72l-5.16,18.85H598.84
			z M607.95,39.25l1.76-6.02h7.31l1.76,6.02H607.95z"/>
		<path class="st0" d="M638.97,44.72c-1.49,0-2.82-0.17-4.01-0.51c-1.19-0.34-2.2-0.82-3.05-1.45c-0.85-0.63-1.51-1.38-1.98-2.25
			c-0.47-0.87-0.7-1.83-0.7-2.88h7.35c0.05,0.44,0.19,0.81,0.41,1.1s0.52,0.5,0.9,0.63c0.38,0.13,0.8,0.2,1.27,0.2
			c0.73,0,1.26-0.12,1.6-0.37c0.34-0.25,0.51-0.58,0.51-1c0-0.39-0.1-0.68-0.31-0.86s-0.55-0.33-1.02-0.45s-1.11-0.23-1.92-0.33
			c-1.9-0.29-3.47-0.68-4.69-1.17c-1.23-0.5-2.13-1.19-2.72-2.09c-0.59-0.9-0.88-2.05-0.88-3.46c0-1.43,0.4-2.69,1.19-3.75
			c0.79-1.07,1.91-1.9,3.34-2.5c1.43-0.6,3.1-0.9,5.01-0.9c1.77,0,3.33,0.28,4.67,0.84c1.34,0.56,2.41,1.34,3.19,2.35
			c0.78,1,1.21,2.17,1.29,3.5h-7.35c0-0.34-0.08-0.62-0.25-0.84c-0.17-0.22-0.4-0.39-0.7-0.51c-0.3-0.12-0.66-0.18-1.08-0.18
			c-0.55,0-0.99,0.11-1.33,0.33c-0.34,0.22-0.51,0.55-0.51,1c0,0.37,0.12,0.65,0.37,0.84c0.25,0.2,0.67,0.36,1.25,0.49
			c0.59,0.13,1.36,0.26,2.33,0.39c1.85,0.23,3.34,0.61,4.48,1.13c1.13,0.52,1.96,1.23,2.46,2.11c0.51,0.89,0.76,2.02,0.76,3.4
			c0,1.54-0.41,2.84-1.23,3.91c-0.82,1.07-1.98,1.88-3.46,2.44C642.69,44.44,640.95,44.72,638.97,44.72z"/>
		<path class="st0" d="M660.4,44.72c-1.49,0-2.82-0.17-4.01-0.51c-1.19-0.34-2.2-0.82-3.05-1.45c-0.85-0.63-1.51-1.38-1.98-2.25
			c-0.47-0.87-0.7-1.83-0.7-2.88h7.35c0.05,0.44,0.19,0.81,0.41,1.1s0.52,0.5,0.9,0.63c0.38,0.13,0.8,0.2,1.27,0.2
			c0.73,0,1.26-0.12,1.6-0.37c0.34-0.25,0.51-0.58,0.51-1c0-0.39-0.1-0.68-0.31-0.86s-0.55-0.33-1.02-0.45s-1.11-0.23-1.92-0.33
			c-1.9-0.29-3.47-0.68-4.69-1.17c-1.23-0.5-2.13-1.19-2.72-2.09c-0.59-0.9-0.88-2.05-0.88-3.46c0-1.43,0.4-2.69,1.19-3.75
			c0.79-1.07,1.91-1.9,3.34-2.5c1.43-0.6,3.1-0.9,5.01-0.9c1.77,0,3.33,0.28,4.67,0.84c1.34,0.56,2.41,1.34,3.19,2.35
			c0.78,1,1.21,2.17,1.29,3.5h-7.35c0-0.34-0.08-0.62-0.25-0.84c-0.17-0.22-0.4-0.39-0.7-0.51c-0.3-0.12-0.66-0.18-1.08-0.18
			c-0.55,0-0.99,0.11-1.33,0.33c-0.34,0.22-0.51,0.55-0.51,1c0,0.37,0.12,0.65,0.37,0.84c0.25,0.2,0.67,0.36,1.25,0.49
			c0.59,0.13,1.36,0.26,2.33,0.39c1.85,0.23,3.34,0.61,4.48,1.13c1.13,0.52,1.96,1.23,2.46,2.11c0.51,0.89,0.76,2.02,0.76,3.4
			c0,1.54-0.41,2.84-1.23,3.91c-0.82,1.07-1.98,1.88-3.46,2.44C664.12,44.44,662.38,44.72,660.4,44.72z"/>
		<path class="st0" d="M677.1,21.29c-1.1,0-2-0.28-2.72-0.84c-0.72-0.56-1.08-1.36-1.08-2.41s0.36-1.84,1.08-2.41
			c0.72-0.56,1.62-0.84,2.72-0.84c1.09,0,2,0.28,2.72,0.84c0.72,0.56,1.08,1.36,1.08,2.41s-0.36,1.84-1.08,2.41
			C679.1,21.01,678.2,21.29,677.1,21.29z M673.35,44.33V23.05h7.47v21.28H673.35z"/>
		<path class="st0" d="M693.53,44.72c-1.49,0-2.82-0.17-4.01-0.51c-1.19-0.34-2.2-0.82-3.05-1.45c-0.85-0.63-1.51-1.38-1.98-2.25
			c-0.47-0.87-0.7-1.83-0.7-2.88h7.35c0.05,0.44,0.19,0.81,0.41,1.1s0.52,0.5,0.9,0.63c0.38,0.13,0.8,0.2,1.27,0.2
			c0.73,0,1.26-0.12,1.6-0.37c0.34-0.25,0.51-0.58,0.51-1c0-0.39-0.1-0.68-0.31-0.86s-0.55-0.33-1.02-0.45s-1.11-0.23-1.92-0.33
			c-1.9-0.29-3.47-0.68-4.69-1.17c-1.23-0.5-2.13-1.19-2.72-2.09c-0.59-0.9-0.88-2.05-0.88-3.46c0-1.43,0.4-2.69,1.19-3.75
			c0.79-1.07,1.91-1.9,3.34-2.5c1.43-0.6,3.1-0.9,5.01-0.9c1.77,0,3.33,0.28,4.67,0.84c1.34,0.56,2.41,1.34,3.19,2.35
			c0.78,1,1.21,2.17,1.29,3.5h-7.35c0-0.34-0.08-0.62-0.25-0.84c-0.17-0.22-0.4-0.39-0.7-0.51c-0.3-0.12-0.66-0.18-1.08-0.18
			c-0.55,0-0.99,0.11-1.33,0.33c-0.34,0.22-0.51,0.55-0.51,1c0,0.37,0.12,0.65,0.37,0.84c0.25,0.2,0.67,0.36,1.25,0.49
			c0.59,0.13,1.36,0.26,2.33,0.39c1.85,0.23,3.34,0.61,4.48,1.13c1.13,0.52,1.96,1.23,2.46,2.11c0.51,0.89,0.76,2.02,0.76,3.4
			c0,1.54-0.41,2.84-1.23,3.91c-0.82,1.07-1.98,1.88-3.46,2.44C697.25,44.44,695.51,44.72,693.53,44.72z"/>
		<path class="st0" d="M714.49,44.33c-2.06,0-3.56-0.48-4.5-1.43c-0.94-0.95-1.41-2.46-1.41-4.52v-9.35h-3.56v-5.98h3.56v-5.44
			l7.47-0.63v6.06h3.87v5.98h-3.87v7.94c0,0.55,0.14,0.91,0.43,1.1c0.29,0.18,0.65,0.27,1.09,0.27h2.35v5.98H714.49z"/>
		<path class="st0" d="M730.96,44.72c-1.28,0-2.45-0.25-3.5-0.74c-1.06-0.5-1.96-1.21-2.72-2.15c-0.76-0.94-1.34-2.09-1.74-3.46
			s-0.61-2.93-0.61-4.67c0-2.35,0.36-4.34,1.08-5.98c0.72-1.64,1.71-2.89,2.99-3.75c1.28-0.86,2.78-1.29,4.5-1.29
			c0.96,0,1.85,0.14,2.66,0.43c0.81,0.29,1.51,0.69,2.09,1.21c0.59,0.52,1.01,1.13,1.27,1.84h0.39l0.27-3.09h7.12v21.28h-7.12
			l-0.27-3.09h-0.39c-0.39,1.04-1.13,1.88-2.23,2.52C733.66,44.4,732.39,44.72,730.96,44.72z M733.74,38.74
			c0.83,0,1.51-0.17,2.03-0.51c0.52-0.34,0.91-0.82,1.15-1.45s0.37-1.36,0.37-2.19v-1.8c0-0.89-0.14-1.64-0.41-2.25
			c-0.27-0.61-0.67-1.08-1.17-1.41c-0.51-0.33-1.1-0.49-1.78-0.49c-0.94,0-1.7,0.21-2.27,0.63c-0.57,0.42-0.99,1-1.25,1.76
			c-0.26,0.76-0.39,1.64-0.39,2.66c0,0.99,0.12,1.87,0.35,2.64c0.23,0.77,0.63,1.36,1.17,1.78
			C732.09,38.53,732.82,38.74,733.74,38.74z"/>
		<path class="st0" d="M748.99,44.33V23.05h7.2l0.27,3.48h0.31c0.52-1.3,1.35-2.27,2.48-2.91c1.13-0.64,2.41-0.96,3.81-0.96
			c1.04,0,2.01,0.16,2.91,0.47s1.69,0.81,2.37,1.49c0.68,0.68,1.21,1.57,1.58,2.68c0.38,1.11,0.57,2.44,0.57,4.01v13.02h-7.47V32.95
			c0-0.94-0.1-1.73-0.31-2.37c-0.21-0.64-0.54-1.11-0.98-1.43c-0.44-0.31-1.04-0.47-1.8-0.47c-0.78,0-1.43,0.18-1.94,0.55
			c-0.51,0.37-0.89,0.82-1.15,1.37c-0.26,0.55-0.39,1.11-0.39,1.68v12.05H748.99z"/>
		<path class="st0" d="M782.39,44.33c-2.06,0-3.56-0.48-4.5-1.43c-0.94-0.95-1.41-2.46-1.41-4.52v-9.35h-3.56v-5.98h3.56v-5.44
			l7.47-0.63v6.06h3.87v5.98h-3.87v7.94c0,0.55,0.14,0.91,0.43,1.1c0.29,0.18,0.65,0.27,1.09,0.27h2.35v5.98H782.39z"/>
	</g>
</g>
</svg>
