<?xml version="1.0" encoding="utf-8"?>
<!-- Generator: Adobe Illustrator 28.4.1, SVG Export Plug-In . SVG Version: 6.00 Build 0)  -->
<svg version="1.1" id="Layer_1" xmlns="http://www.w3.org/2000/svg" xmlns:xlink="http://www.w3.org/1999/xlink" x="0px" y="0px"
	 viewBox="0 0 800 60" style="enable-background:new 0 0 800 60;" xml:space="preserve">
<style type="text/css">
	.st0{fill:#E1E1E1;}
	.st1{fill:#0078D7;}
</style>
<g>
	<g>
		<path class="st0" d="M24.26,43.54c-1.99,0-3.78-0.29-5.39-0.87c-1.61-0.58-3-1.43-4.17-2.55c-1.17-1.12-2.07-2.51-2.7-4.17
			c-0.63-1.66-0.94-3.56-0.94-5.71c0-2.15,0.31-4.05,0.94-5.69c0.63-1.64,1.53-3.03,2.7-4.15s2.56-1.97,4.17-2.55
			c1.61-0.58,3.41-0.87,5.39-0.87c2.29,0,4.33,0.4,6.12,1.19c1.79,0.79,3.22,1.9,4.31,3.32c1.09,1.42,1.73,3.07,1.92,4.97h-7.27
			c-0.19-0.66-0.52-1.25-0.99-1.76c-0.47-0.51-1.05-0.9-1.74-1.19c-0.69-0.28-1.47-0.43-2.34-0.43c-1.16,0-2.18,0.24-3.05,0.73
			c-0.88,0.48-1.56,1.25-2.04,2.31c-0.49,1.05-0.73,2.43-0.73,4.13c0,1.28,0.14,2.38,0.43,3.3c0.28,0.92,0.68,1.67,1.19,2.23
			c0.51,0.57,1.12,0.99,1.83,1.26c0.71,0.27,1.5,0.41,2.38,0.41c0.83,0,1.59-0.14,2.29-0.43c0.7-0.28,1.29-0.68,1.79-1.19
			c0.5-0.51,0.83-1.1,0.99-1.79h7.27c-0.19,1.89-0.84,3.55-1.95,4.98c-1.11,1.43-2.56,2.54-4.35,3.33
			C28.52,43.14,26.5,43.54,24.26,43.54z"/>
		<path class="st0" d="M39.3,43.18V17.32h6.77v9.72h0.28c0.47-1.18,1.22-2.06,2.25-2.64c1.03-0.58,2.18-0.87,3.46-0.87
			c0.95,0,1.83,0.14,2.64,0.43c0.82,0.28,1.53,0.73,2.15,1.35c0.61,0.61,1.09,1.42,1.44,2.43c0.34,1.01,0.51,2.22,0.51,3.64v11.81
			h-6.77V32.86c0-0.85-0.09-1.57-0.28-2.15c-0.19-0.58-0.48-1.01-0.89-1.29c-0.4-0.28-0.95-0.43-1.63-0.43
			c-0.71,0-1.29,0.17-1.76,0.5c-0.46,0.33-0.81,0.75-1.05,1.24c-0.24,0.5-0.35,1.01-0.35,1.52v10.92H39.3z"/>
		<path class="st0" d="M62.32,43.18v-19.3h6.14l0.25,2.8h0.25c0.43-1.23,1.08-2.05,1.97-2.45c0.89-0.4,1.9-0.6,3.03-0.6
			c0.21,0,0.4,0,0.57,0s0.33,0,0.5,0v6.35c-0.12,0-0.28,0-0.5,0c-0.21,0-0.45,0-0.71,0c-1.23,0-2.19,0.16-2.87,0.48
			c-0.69,0.32-1.17,0.78-1.44,1.38c-0.27,0.6-0.41,1.34-0.41,2.22v9.12H62.32z"/>
		<path class="st0" d="M86.47,43.54c-1.49,0-2.84-0.22-4.04-0.66c-1.21-0.44-2.25-1.09-3.12-1.95s-1.55-1.92-2.02-3.16
			c-0.47-1.24-0.71-2.65-0.71-4.24c0-2.01,0.38-3.76,1.15-5.25c0.77-1.49,1.89-2.65,3.37-3.49c1.48-0.84,3.27-1.26,5.37-1.26
			c1.49,0,2.84,0.22,4.04,0.66c1.21,0.44,2.25,1.09,3.12,1.95c0.87,0.86,1.55,1.91,2.02,3.14c0.47,1.23,0.71,2.65,0.71,4.26
			c0,1.99-0.38,3.73-1.15,5.23c-0.77,1.5-1.89,2.67-3.35,3.51C90.4,43.12,88.6,43.54,86.47,43.54z M86.47,38.11
			c0.61,0,1.15-0.15,1.61-0.46c0.46-0.31,0.82-0.8,1.06-1.47c0.25-0.67,0.37-1.55,0.37-2.64c0-0.83-0.07-1.53-0.21-2.11
			c-0.14-0.58-0.35-1.05-0.62-1.42c-0.27-0.37-0.59-0.63-0.96-0.8c-0.37-0.17-0.79-0.25-1.26-0.25c-0.62,0-1.15,0.15-1.61,0.46
			c-0.46,0.31-0.82,0.79-1.06,1.45c-0.25,0.66-0.37,1.55-0.37,2.66c0,0.83,0.07,1.53,0.21,2.11c0.14,0.58,0.35,1.05,0.62,1.42
			c0.27,0.37,0.6,0.63,0.98,0.8C85.61,38.03,86.02,38.11,86.47,38.11z"/>
		<path class="st0" d="M99.17,43.18v-19.3h6.53l0.25,3.16h0.28c0.47-1.18,1.22-2.06,2.25-2.64c1.03-0.58,2.18-0.87,3.46-0.87
			c0.95,0,1.83,0.14,2.64,0.43c0.82,0.28,1.53,0.73,2.15,1.35c0.61,0.61,1.09,1.42,1.44,2.43c0.34,1.01,0.51,2.22,0.51,3.64v11.81
			h-6.77V32.86c0-0.85-0.09-1.57-0.28-2.15c-0.19-0.58-0.48-1.01-0.89-1.29c-0.4-0.28-0.95-0.43-1.63-0.43
			c-0.71,0-1.29,0.17-1.76,0.5c-0.46,0.33-0.81,0.75-1.05,1.24c-0.24,0.5-0.35,1.01-0.35,1.52v10.92H99.17z"/>
		<path class="st0" d="M131.06,43.54c-1.49,0-2.84-0.22-4.04-0.66c-1.21-0.44-2.25-1.09-3.12-1.95s-1.55-1.92-2.02-3.16
			c-0.47-1.24-0.71-2.65-0.71-4.24c0-2.01,0.38-3.76,1.15-5.25c0.77-1.49,1.89-2.65,3.37-3.49c1.48-0.84,3.27-1.26,5.37-1.26
			c1.49,0,2.84,0.22,4.04,0.66c1.21,0.44,2.25,1.09,3.12,1.95c0.87,0.86,1.55,1.91,2.02,3.14c0.47,1.23,0.71,2.65,0.71,4.26
			c0,1.99-0.38,3.73-1.15,5.23c-0.77,1.5-1.89,2.67-3.35,3.51C134.98,43.12,133.18,43.54,131.06,43.54z M131.06,38.11
			c0.61,0,1.15-0.15,1.61-0.46c0.46-0.31,0.82-0.8,1.06-1.47c0.25-0.67,0.37-1.55,0.37-2.64c0-0.83-0.07-1.53-0.21-2.11
			c-0.14-0.58-0.35-1.05-0.62-1.42c-0.27-0.37-0.59-0.63-0.96-0.8c-0.37-0.17-0.79-0.25-1.26-0.25c-0.62,0-1.15,0.15-1.61,0.46
			c-0.46,0.31-0.82,0.79-1.06,1.45c-0.25,0.66-0.37,1.55-0.37,2.66c0,0.83,0.07,1.53,0.21,2.11c0.14,0.58,0.35,1.05,0.62,1.42
			c0.27,0.37,0.6,0.63,0.98,0.8C130.19,38.03,130.61,38.11,131.06,38.11z"/>
		<path class="st1" d="M151.13,43.18V17.32h11.21l1.99,9.08l1.1,6.38h0.28l1.06-6.38l1.92-9.08h11.21v25.86h-6.95V32.12l0.18-8.02
			h-0.28l-1.63,7.52l-2.7,11.56h-5.89l-2.73-11.74l-1.6-7.34h-0.32l0.18,8.02v11.07H151.13z"/>
		<path class="st1" d="M190.75,43.54c-1.16,0-2.22-0.22-3.17-0.67s-1.78-1.1-2.47-1.95c-0.69-0.85-1.21-1.9-1.58-3.14
			c-0.37-1.24-0.55-2.65-0.55-4.24c0-2.13,0.32-3.94,0.98-5.43c0.65-1.49,1.55-2.62,2.71-3.4c1.16-0.78,2.52-1.17,4.08-1.17
			c0.87,0,1.68,0.13,2.41,0.39c0.73,0.26,1.37,0.63,1.9,1.1c0.53,0.47,0.92,1.03,1.15,1.67h0.35l0.25-2.8h6.46v19.3h-6.46l-0.25-2.8
			h-0.35c-0.35,0.95-1.03,1.71-2.02,2.29S192.05,43.54,190.75,43.54z M193.27,38.11c0.76,0,1.37-0.15,1.84-0.46
			c0.47-0.31,0.82-0.75,1.05-1.31s0.34-1.23,0.34-1.99v-1.63c0-0.8-0.12-1.48-0.37-2.04c-0.25-0.56-0.6-0.98-1.06-1.28
			c-0.46-0.3-1-0.44-1.61-0.44c-0.85,0-1.54,0.19-2.06,0.57c-0.52,0.38-0.9,0.91-1.13,1.6c-0.24,0.69-0.35,1.49-0.35,2.41
			c0,0.9,0.11,1.7,0.32,2.39c0.21,0.7,0.57,1.24,1.06,1.61C191.78,37.92,192.44,38.11,193.27,38.11z"/>
		<path class="st1" d="M207.1,43.18v-19.3h6.14l0.25,2.8h0.25c0.43-1.23,1.08-2.05,1.97-2.45c0.89-0.4,1.9-0.6,3.03-0.6
			c0.21,0,0.4,0,0.57,0s0.33,0,0.5,0v6.35c-0.12,0-0.28,0-0.5,0c-0.21,0-0.45,0-0.71,0c-1.23,0-2.19,0.16-2.87,0.48
			c-0.69,0.32-1.17,0.78-1.44,1.38c-0.27,0.6-0.41,1.34-0.41,2.22v9.12H207.1z"/>
		<path class="st1" d="M222.39,43.18V17.32h6.88v13.41l1.49-1.84l4.29-5h8.3l-7.38,7.73l7.41,11.56h-7.98l-3.05-5l-1.14-2.06
			l-1.95,1.95v5.11H222.39z"/>
		<path class="st1" d="M252.4,43.54c-1.16,0-2.22-0.22-3.17-0.67s-1.78-1.1-2.47-1.95c-0.69-0.85-1.21-1.9-1.58-3.14
			c-0.37-1.24-0.55-2.65-0.55-4.24c0-2.13,0.32-3.94,0.98-5.43c0.65-1.49,1.55-2.62,2.71-3.4c1.16-0.78,2.52-1.17,4.08-1.17
			c0.87,0,1.68,0.13,2.41,0.39c0.73,0.26,1.37,0.63,1.9,1.1c0.53,0.47,0.92,1.03,1.15,1.67h0.28v-9.36h6.77v25.86h-6.46l-0.25-2.8
			h-0.35c-0.35,0.95-1.03,1.71-2.02,2.29S253.7,43.54,252.4,43.54z M254.91,38.11c0.76,0,1.37-0.15,1.84-0.46
			c0.47-0.31,0.82-0.75,1.05-1.31s0.34-1.23,0.34-1.99v-1.63c0-0.8-0.12-1.48-0.37-2.04c-0.25-0.56-0.6-0.98-1.06-1.28
			c-0.46-0.3-1-0.44-1.61-0.44c-0.85,0-1.54,0.19-2.06,0.57c-0.52,0.38-0.9,0.91-1.13,1.6c-0.24,0.69-0.35,1.49-0.35,2.41
			c0,0.9,0.11,1.7,0.32,2.39c0.21,0.7,0.57,1.24,1.06,1.61C253.42,37.92,254.09,38.11,254.91,38.11z"/>
		<path class="st1" d="M277.61,43.54c-1.49,0-2.84-0.22-4.04-0.66c-1.21-0.44-2.25-1.09-3.12-1.95s-1.55-1.92-2.02-3.16
			c-0.47-1.24-0.71-2.65-0.71-4.24c0-2.01,0.38-3.76,1.15-5.25c0.77-1.49,1.89-2.65,3.37-3.49c1.48-0.84,3.27-1.26,5.37-1.26
			c1.49,0,2.84,0.22,4.04,0.66c1.21,0.44,2.25,1.09,3.12,1.95c0.87,0.86,1.55,1.91,2.02,3.14c0.47,1.23,0.71,2.65,0.71,4.26
			c0,1.99-0.38,3.73-1.15,5.23c-0.77,1.5-1.89,2.67-3.35,3.51C281.54,43.12,279.74,43.54,277.61,43.54z M277.61,38.11
			c0.61,0,1.15-0.15,1.61-0.46c0.46-0.31,0.82-0.8,1.06-1.47c0.25-0.67,0.37-1.55,0.37-2.64c0-0.83-0.07-1.53-0.21-2.11
			c-0.14-0.58-0.35-1.05-0.62-1.42c-0.27-0.37-0.59-0.63-0.96-0.8c-0.37-0.17-0.79-0.25-1.26-0.25c-0.62,0-1.15,0.15-1.61,0.46
			c-0.46,0.31-0.82,0.79-1.06,1.45c-0.25,0.66-0.37,1.55-0.37,2.66c0,0.83,0.07,1.53,0.21,2.11c0.14,0.58,0.35,1.05,0.62,1.42
			c0.27,0.37,0.6,0.63,0.98,0.8C276.75,38.03,277.16,38.11,277.61,38.11z"/>
		<path class="st1" d="M293.08,43.18l-4.26-19.3h7.02l1.56,8.58l0.67,4.65h0.25l0.57-4.65l1.31-8.58h7.31l1.24,8.58l0.53,4.75h0.25
			l0.64-4.75l1.63-8.58h6.7l-4.33,19.3h-8.9l-1.03-6.38l-0.6-4.97h-0.21l-0.6,4.97l-1.03,6.38H293.08z"/>
		<path class="st1" d="M320.85,43.18v-19.3h6.53l0.25,3.16h0.28c0.47-1.18,1.22-2.06,2.25-2.64c1.03-0.58,2.18-0.87,3.46-0.87
			c0.95,0,1.83,0.14,2.64,0.43c0.82,0.28,1.53,0.73,2.15,1.35c0.61,0.61,1.09,1.42,1.44,2.43c0.34,1.01,0.51,2.22,0.51,3.64v11.81
			h-6.77V32.86c0-0.85-0.09-1.57-0.28-2.15c-0.19-0.58-0.48-1.01-0.89-1.29c-0.4-0.28-0.95-0.43-1.63-0.43
			c-0.71,0-1.29,0.17-1.76,0.5c-0.46,0.33-0.81,0.75-1.05,1.24c-0.24,0.5-0.35,1.01-0.35,1.52v10.92H320.85z"/>
		<path class="st0" d="M363.34,43.54c-1.99,0-3.78-0.29-5.39-0.87c-1.61-0.58-3-1.43-4.17-2.55c-1.17-1.12-2.07-2.51-2.7-4.17
			c-0.63-1.66-0.94-3.56-0.94-5.71c0-2.15,0.31-4.05,0.94-5.69c0.63-1.64,1.53-3.03,2.7-4.15s2.56-1.97,4.17-2.55
			c1.61-0.58,3.41-0.87,5.39-0.87c2.29,0,4.33,0.4,6.12,1.19c1.79,0.79,3.22,1.9,4.31,3.32c1.09,1.42,1.73,3.07,1.92,4.97h-7.27
			c-0.19-0.66-0.52-1.25-0.99-1.76c-0.47-0.51-1.05-0.9-1.74-1.19c-0.69-0.28-1.47-0.43-2.34-0.43c-1.16,0-2.18,0.24-3.05,0.73
			c-0.88,0.48-1.56,1.25-2.04,2.31c-0.49,1.05-0.73,2.43-0.73,4.13c0,1.28,0.14,2.38,0.43,3.3c0.28,0.92,0.68,1.67,1.19,2.23
			c0.51,0.57,1.12,0.99,1.83,1.26c0.71,0.27,1.5,0.41,2.38,0.41c0.83,0,1.59-0.14,2.29-0.43c0.7-0.28,1.29-0.68,1.79-1.19
			c0.5-0.51,0.83-1.1,0.99-1.79h7.27c-0.19,1.89-0.84,3.55-1.95,4.98c-1.11,1.43-2.56,2.54-4.35,3.33
			C367.6,43.14,365.59,43.54,363.34,43.54z"/>
		<path class="st0" d="M385.23,43.54c-1.16,0-2.22-0.22-3.17-0.67s-1.78-1.1-2.47-1.95c-0.69-0.85-1.21-1.9-1.58-3.14
			c-0.37-1.24-0.55-2.65-0.55-4.24c0-2.13,0.32-3.94,0.98-5.43c0.65-1.49,1.55-2.62,2.71-3.4c1.16-0.78,2.52-1.17,4.08-1.17
			c0.87,0,1.68,0.13,2.41,0.39c0.73,0.26,1.37,0.63,1.9,1.1c0.53,0.47,0.92,1.03,1.15,1.67h0.35l0.25-2.8h6.46v19.3h-6.46l-0.25-2.8
			h-0.35c-0.35,0.95-1.03,1.71-2.02,2.29S386.53,43.54,385.23,43.54z M387.75,38.11c0.76,0,1.37-0.15,1.84-0.46
			c0.47-0.31,0.82-0.75,1.05-1.31s0.34-1.23,0.34-1.99v-1.63c0-0.8-0.12-1.48-0.37-2.04c-0.25-0.56-0.6-0.98-1.06-1.28
			c-0.46-0.3-1-0.44-1.61-0.44c-0.85,0-1.54,0.19-2.06,0.57c-0.52,0.38-0.9,0.91-1.13,1.6c-0.24,0.69-0.35,1.49-0.35,2.41
			c0,0.9,0.11,1.7,0.32,2.39c0.21,0.7,0.57,1.24,1.06,1.61C386.26,37.92,386.92,38.11,387.75,38.11z"/>
		<path class="st0" d="M401.58,43.18v-19.3h6.14l0.25,2.8h0.25c0.43-1.23,1.08-2.05,1.97-2.45c0.89-0.4,1.9-0.6,3.03-0.6
			c0.21,0,0.4,0,0.57,0s0.33,0,0.5,0v6.35c-0.12,0-0.28,0-0.5,0s-0.45,0-0.71,0c-1.23,0-2.19,0.16-2.87,0.48s-1.17,0.78-1.44,1.38
			c-0.27,0.6-0.41,1.34-0.41,2.22v9.12H401.58z"/>
		<path class="st0" d="M423.71,43.54c-1.16,0-2.22-0.22-3.17-0.67c-0.96-0.45-1.78-1.1-2.47-1.95c-0.69-0.85-1.21-1.9-1.58-3.14
			c-0.37-1.24-0.55-2.65-0.55-4.24c0-2.13,0.33-3.94,0.98-5.43s1.55-2.62,2.71-3.4c1.16-0.78,2.52-1.17,4.08-1.17
			c0.88,0,1.68,0.13,2.41,0.39c0.73,0.26,1.37,0.63,1.9,1.1c0.53,0.47,0.92,1.03,1.15,1.67h0.28v-9.36h6.78v25.86h-6.46l-0.25-2.8
			h-0.35c-0.36,0.95-1.03,1.71-2.02,2.29S425.01,43.54,423.71,43.54z M426.23,38.11c0.76,0,1.37-0.15,1.84-0.46
			c0.47-0.31,0.82-0.75,1.05-1.31s0.34-1.23,0.34-1.99v-1.63c0-0.8-0.12-1.48-0.37-2.04s-0.6-0.98-1.06-1.28
			c-0.46-0.3-1-0.44-1.61-0.44c-0.85,0-1.54,0.19-2.06,0.57c-0.52,0.38-0.9,0.91-1.13,1.6c-0.24,0.69-0.35,1.49-0.35,2.41
			c0,0.9,0.11,1.7,0.32,2.39c0.21,0.7,0.57,1.24,1.06,1.61C424.74,37.92,425.4,38.11,426.23,38.11z"/>
		<path class="st0" d="M448.79,43.18V29.31h-2.84v-5.43h2.84v-1.28c0-1.68,0.55-2.98,1.65-3.9s2.65-1.38,4.66-1.38h4.36v4.36h-2.52
			c-0.4,0-0.73,0.08-0.99,0.25c-0.26,0.17-0.39,0.5-0.39,0.99v0.96h3.62v5.43h-3.62v13.87H448.79z"/>
		<path class="st0" d="M470.57,43.54c-1.49,0-2.84-0.22-4.04-0.66c-1.21-0.44-2.25-1.09-3.12-1.95c-0.88-0.86-1.55-1.92-2.02-3.16
			c-0.47-1.24-0.71-2.65-0.71-4.24c0-2.01,0.38-3.76,1.15-5.25s1.89-2.65,3.37-3.49c1.48-0.84,3.27-1.26,5.37-1.26
			c1.49,0,2.84,0.22,4.04,0.66c1.21,0.44,2.25,1.09,3.12,1.95s1.55,1.91,2.02,3.14c0.47,1.23,0.71,2.65,0.71,4.26
			c0,1.99-0.38,3.73-1.15,5.23c-0.77,1.5-1.89,2.67-3.35,3.51C474.49,43.12,472.69,43.54,470.57,43.54z M470.57,38.11
			c0.61,0,1.15-0.15,1.61-0.46c0.46-0.31,0.82-0.8,1.06-1.47s0.37-1.55,0.37-2.64c0-0.83-0.07-1.53-0.21-2.11
			c-0.14-0.58-0.35-1.05-0.62-1.42c-0.27-0.37-0.59-0.63-0.96-0.8c-0.37-0.17-0.79-0.25-1.26-0.25c-0.62,0-1.15,0.15-1.61,0.46
			c-0.46,0.31-0.82,0.79-1.06,1.45c-0.25,0.66-0.37,1.55-0.37,2.66c0,0.83,0.07,1.53,0.21,2.11s0.35,1.05,0.62,1.42
			c0.27,0.37,0.6,0.63,0.97,0.8C469.7,38.03,470.12,38.11,470.57,38.11z"/>
		<path class="st0" d="M483.26,43.18v-19.3h6.14l0.25,2.8h0.25c0.43-1.23,1.08-2.05,1.97-2.45c0.89-0.4,1.9-0.6,3.03-0.6
			c0.21,0,0.4,0,0.57,0c0.17,0,0.33,0,0.5,0v6.35c-0.12,0-0.28,0-0.5,0s-0.45,0-0.71,0c-1.23,0-2.19,0.16-2.87,0.48
			s-1.17,0.78-1.44,1.38c-0.27,0.6-0.41,1.34-0.41,2.22v9.12H483.26z"/>
		<path class="st0" d="M505.93,43.18V17.32h7.2v25.86H505.93z M511.78,33.14v-6.1h12.56v6.1H511.78z M522.99,43.18V17.32h7.2v25.86
			H522.99z"/>
		<path class="st0" d="M543.06,43.54c-1.49,0-2.84-0.22-4.04-0.66c-1.21-0.44-2.25-1.09-3.12-1.95c-0.88-0.86-1.55-1.92-2.02-3.16
			c-0.47-1.24-0.71-2.65-0.71-4.24c0-2.01,0.38-3.76,1.15-5.25s1.89-2.65,3.37-3.49c1.48-0.84,3.27-1.26,5.37-1.26
			c1.49,0,2.84,0.22,4.04,0.66c1.21,0.44,2.25,1.09,3.12,1.95s1.55,1.91,2.02,3.14c0.47,1.23,0.71,2.65,0.71,4.26
			c0,1.99-0.38,3.73-1.15,5.23c-0.77,1.5-1.89,2.67-3.35,3.51C546.99,43.12,545.19,43.54,543.06,43.54z M543.06,38.11
			c0.61,0,1.15-0.15,1.61-0.46c0.46-0.31,0.82-0.8,1.06-1.47s0.37-1.55,0.37-2.64c0-0.83-0.07-1.53-0.21-2.11
			c-0.14-0.58-0.35-1.05-0.62-1.42c-0.27-0.37-0.59-0.63-0.96-0.8c-0.37-0.17-0.79-0.25-1.26-0.25c-0.62,0-1.15,0.15-1.61,0.46
			c-0.46,0.31-0.82,0.79-1.06,1.45c-0.25,0.66-0.37,1.55-0.37,2.66c0,0.83,0.07,1.53,0.21,2.11s0.35,1.05,0.62,1.42
			c0.27,0.37,0.6,0.63,0.97,0.8C542.2,38.03,542.61,38.11,543.06,38.11z"/>
		<path class="st0" d="M555.76,43.18v-19.3h6.56l0.21,3.16h0.28c0.43-1.18,1.13-2.06,2.13-2.64c0.99-0.58,2.09-0.87,3.3-0.87
			c1.25,0,2.43,0.3,3.53,0.89c1.1,0.59,1.91,1.66,2.43,3.19h0.28c0.4-1.37,1.15-2.39,2.25-3.07s2.35-1.01,3.74-1.01
			c1.21,0,2.29,0.25,3.26,0.76c0.97,0.51,1.74,1.34,2.32,2.48c0.58,1.15,0.87,2.68,0.87,4.59v11.81h-6.77V32.86
			c0-0.85-0.08-1.57-0.25-2.15c-0.17-0.58-0.44-1.01-0.82-1.29c-0.38-0.28-0.88-0.43-1.49-0.43c-0.64,0-1.17,0.17-1.6,0.5
			c-0.43,0.33-0.75,0.75-0.96,1.24s-0.32,1.01-0.32,1.52v10.92h-6.77V32.86c0-0.85-0.08-1.57-0.25-2.15
			c-0.17-0.58-0.44-1.01-0.82-1.29c-0.38-0.28-0.88-0.43-1.49-0.43c-0.64,0-1.17,0.17-1.6,0.5c-0.43,0.33-0.75,0.75-0.96,1.24
			c-0.21,0.5-0.32,1.01-0.32,1.52v10.92H555.76z"/>
		<path class="st0" d="M599.35,43.54c-2.11,0-3.9-0.41-5.37-1.22c-1.48-0.82-2.61-1.96-3.39-3.44c-0.78-1.48-1.17-3.2-1.17-5.16
			c0-2.1,0.4-3.92,1.21-5.44c0.8-1.52,1.93-2.7,3.39-3.51c1.45-0.82,3.15-1.22,5.09-1.22c2.34,0,4.26,0.5,5.75,1.51
			c1.49,1.01,2.56,2.38,3.21,4.13c0.65,1.75,0.86,3.74,0.62,5.96h-12.59c-0.02,0.71,0.1,1.32,0.37,1.83
			c0.27,0.51,0.66,0.89,1.15,1.15c0.5,0.26,1.08,0.39,1.74,0.39c0.78,0,1.39-0.13,1.84-0.39c0.45-0.26,0.76-0.6,0.92-1.03h6.38
			c-0.17,1.3-0.66,2.43-1.47,3.39c-0.82,0.96-1.88,1.71-3.19,2.25C602.53,43.26,601.03,43.54,599.35,43.54z M596.09,31.65
			l-0.57-0.57h7.09l-0.6,0.53c0.05-0.66-0.05-1.22-0.28-1.67s-0.58-0.8-1.03-1.05c-0.45-0.25-0.98-0.37-1.6-0.37
			c-0.64,0-1.19,0.13-1.65,0.39c-0.46,0.26-0.81,0.63-1.05,1.1C596.17,30.5,596.07,31.04,596.09,31.65z"/>
		<path class="st0" d="M617.3,43.18l8.05-25.86h10.25l8.05,25.86h-7.48l-4.68-17.1l-0.89-3.37h-0.25l-0.89,3.37l-4.68,17.1H617.3z
			 M625.56,38.57l1.6-5.46h6.63l1.6,5.46H625.56z"/>
		<path class="st0" d="M653.69,43.54c-1.35,0-2.56-0.15-3.64-0.46s-2-0.75-2.77-1.31s-1.37-1.25-1.79-2.04s-0.64-1.66-0.64-2.61
			h6.67c0.05,0.4,0.17,0.73,0.37,0.99c0.2,0.26,0.47,0.45,0.82,0.57c0.34,0.12,0.73,0.18,1.15,0.18c0.66,0,1.15-0.11,1.45-0.34
			c0.31-0.22,0.46-0.53,0.46-0.9c0-0.36-0.09-0.62-0.28-0.78c-0.19-0.17-0.5-0.3-0.92-0.41s-1-0.21-1.74-0.3
			c-1.73-0.26-3.14-0.61-4.26-1.06c-1.11-0.45-1.93-1.08-2.47-1.9c-0.53-0.82-0.8-1.86-0.8-3.14c0-1.3,0.36-2.44,1.08-3.41
			c0.72-0.97,1.73-1.73,3.03-2.27c1.3-0.54,2.81-0.82,4.54-0.82c1.61,0,3.02,0.25,4.24,0.76c1.22,0.51,2.18,1.22,2.89,2.13
			c0.71,0.91,1.1,1.97,1.17,3.17h-6.67c0-0.31-0.08-0.56-0.23-0.76c-0.15-0.2-0.37-0.35-0.64-0.46c-0.27-0.11-0.6-0.16-0.97-0.16
			c-0.5,0-0.9,0.1-1.21,0.3c-0.31,0.2-0.46,0.5-0.46,0.9c0,0.33,0.11,0.59,0.34,0.76c0.22,0.18,0.6,0.33,1.13,0.44
			c0.53,0.12,1.24,0.24,2.11,0.35c1.68,0.21,3.03,0.56,4.06,1.03c1.03,0.47,1.77,1.11,2.23,1.92c0.46,0.8,0.69,1.83,0.69,3.09
			c0,1.4-0.37,2.58-1.12,3.55c-0.75,0.97-1.79,1.71-3.14,2.22C657.06,43.28,655.49,43.54,653.69,43.54z"/>
		<path class="st0" d="M673.13,43.54c-1.35,0-2.56-0.15-3.64-0.46s-2-0.75-2.77-1.31s-1.37-1.25-1.79-2.04s-0.64-1.66-0.64-2.61
			h6.67c0.05,0.4,0.17,0.73,0.37,0.99c0.2,0.26,0.47,0.45,0.82,0.57c0.34,0.12,0.73,0.18,1.15,0.18c0.66,0,1.15-0.11,1.45-0.34
			c0.31-0.22,0.46-0.53,0.46-0.9c0-0.36-0.09-0.62-0.28-0.78c-0.19-0.17-0.5-0.3-0.92-0.41s-1-0.21-1.74-0.3
			c-1.73-0.26-3.14-0.61-4.26-1.06c-1.11-0.45-1.93-1.08-2.47-1.9c-0.53-0.82-0.8-1.86-0.8-3.14c0-1.3,0.36-2.44,1.08-3.41
			c0.72-0.97,1.73-1.73,3.03-2.27c1.3-0.54,2.81-0.82,4.54-0.82c1.61,0,3.02,0.25,4.24,0.76c1.22,0.51,2.18,1.22,2.89,2.13
			c0.71,0.91,1.1,1.97,1.17,3.17h-6.67c0-0.31-0.08-0.56-0.23-0.76c-0.15-0.2-0.37-0.35-0.64-0.46c-0.27-0.11-0.6-0.16-0.97-0.16
			c-0.5,0-0.9,0.1-1.21,0.3c-0.31,0.2-0.46,0.5-0.46,0.9c0,0.33,0.11,0.59,0.34,0.76c0.22,0.18,0.6,0.33,1.13,0.44
			c0.53,0.12,1.24,0.24,2.11,0.35c1.68,0.21,3.03,0.56,4.06,1.03c1.03,0.47,1.77,1.11,2.23,1.92c0.46,0.8,0.69,1.83,0.69,3.09
			c0,1.4-0.37,2.58-1.12,3.55c-0.75,0.97-1.79,1.71-3.14,2.22C676.5,43.28,674.93,43.54,673.13,43.54z"/>
		<path class="st0" d="M688.27,22.29c-0.99,0-1.81-0.25-2.46-0.76c-0.65-0.51-0.98-1.24-0.98-2.18s0.33-1.67,0.98-2.18
			c0.65-0.51,1.47-0.76,2.46-0.76s1.81,0.25,2.46,0.76c0.65,0.51,0.98,1.24,0.98,2.18s-0.33,1.67-0.98,2.18
			C690.09,22.04,689.27,22.29,688.27,22.29z M684.87,43.18v-19.3h6.78v19.3H684.87z"/>
		<path class="st0" d="M703.17,43.54c-1.35,0-2.56-0.15-3.64-0.46s-2-0.75-2.77-1.31s-1.37-1.25-1.79-2.04s-0.64-1.66-0.64-2.61
			h6.67c0.05,0.4,0.17,0.73,0.37,0.99c0.2,0.26,0.47,0.45,0.82,0.57c0.34,0.12,0.73,0.18,1.15,0.18c0.66,0,1.15-0.11,1.45-0.34
			c0.31-0.22,0.46-0.53,0.46-0.9c0-0.36-0.09-0.62-0.28-0.78c-0.19-0.17-0.5-0.3-0.92-0.41s-1-0.21-1.74-0.3
			c-1.73-0.26-3.14-0.61-4.26-1.06c-1.11-0.45-1.93-1.08-2.47-1.9c-0.53-0.82-0.8-1.86-0.8-3.14c0-1.3,0.36-2.44,1.08-3.41
			c0.72-0.97,1.73-1.73,3.03-2.27c1.3-0.54,2.81-0.82,4.54-0.82c1.61,0,3.02,0.25,4.24,0.76c1.22,0.51,2.18,1.22,2.89,2.13
			c0.71,0.91,1.1,1.97,1.17,3.17h-6.67c0-0.31-0.08-0.56-0.23-0.76c-0.15-0.2-0.37-0.35-0.64-0.46c-0.27-0.11-0.6-0.16-0.97-0.16
			c-0.5,0-0.9,0.1-1.21,0.3c-0.31,0.2-0.46,0.5-0.46,0.9c0,0.33,0.11,0.59,0.34,0.76c0.22,0.18,0.6,0.33,1.13,0.44
			c0.53,0.12,1.24,0.24,2.11,0.35c1.68,0.21,3.03,0.56,4.06,1.03c1.03,0.47,1.77,1.11,2.23,1.92c0.46,0.8,0.69,1.83,0.69,3.09
			c0,1.4-0.37,2.58-1.12,3.55c-0.75,0.97-1.79,1.71-3.14,2.22C706.54,43.28,704.97,43.54,703.17,43.54z"/>
		<path class="st0" d="M722.18,43.18c-1.87,0-3.23-0.43-4.08-1.29c-0.85-0.86-1.28-2.23-1.28-4.1v-8.48h-3.23v-5.43h3.23v-4.93
			l6.77-0.57v5.5h3.51v5.43h-3.51v7.2c0,0.5,0.13,0.83,0.39,0.99c0.26,0.17,0.59,0.25,0.99,0.25h2.13v5.43H722.18z"/>
		<path class="st0" d="M737.11,43.54c-1.16,0-2.22-0.22-3.17-0.67c-0.96-0.45-1.78-1.1-2.47-1.95c-0.69-0.85-1.21-1.9-1.58-3.14
			c-0.37-1.24-0.55-2.65-0.55-4.24c0-2.13,0.33-3.94,0.98-5.43s1.55-2.62,2.71-3.4c1.16-0.78,2.52-1.17,4.08-1.17
			c0.88,0,1.68,0.13,2.41,0.39c0.73,0.26,1.37,0.63,1.9,1.1c0.53,0.47,0.92,1.03,1.15,1.67h0.35l0.25-2.8h6.46v19.3h-6.46l-0.25-2.8
			h-0.35c-0.36,0.95-1.03,1.71-2.02,2.29S738.42,43.54,737.11,43.54z M739.63,38.11c0.76,0,1.37-0.15,1.84-0.46
			c0.47-0.31,0.82-0.75,1.05-1.31s0.34-1.23,0.34-1.99v-1.63c0-0.8-0.12-1.48-0.37-2.04s-0.6-0.98-1.06-1.28
			c-0.46-0.3-1-0.44-1.61-0.44c-0.85,0-1.54,0.19-2.06,0.57c-0.52,0.38-0.9,0.91-1.13,1.6c-0.24,0.69-0.35,1.49-0.35,2.41
			c0,0.9,0.11,1.7,0.32,2.39c0.21,0.7,0.57,1.24,1.06,1.61C738.14,37.92,738.8,38.11,739.63,38.11z"/>
		<path class="st0" d="M753.47,43.18v-19.3h6.53l0.25,3.16h0.28c0.47-1.18,1.22-2.06,2.25-2.64c1.03-0.58,2.18-0.87,3.46-0.87
			c0.95,0,1.83,0.14,2.64,0.43c0.82,0.28,1.53,0.73,2.15,1.35s1.09,1.42,1.44,2.43c0.34,1.01,0.51,2.22,0.51,3.64v11.81h-6.77V32.86
			c0-0.85-0.1-1.57-0.28-2.15c-0.19-0.58-0.49-1.01-0.89-1.29c-0.4-0.28-0.95-0.43-1.63-0.43c-0.71,0-1.29,0.17-1.76,0.5
			c-0.46,0.33-0.81,0.75-1.05,1.24s-0.35,1.01-0.35,1.52v10.92H753.47z"/>
		<path class="st0" d="M783.76,43.18c-1.87,0-3.23-0.43-4.08-1.29c-0.85-0.86-1.28-2.23-1.28-4.1v-8.48h-3.23v-5.43h3.23v-4.93
			l6.77-0.57v5.5h3.51v5.43h-3.51v7.2c0,0.5,0.13,0.83,0.39,0.99c0.26,0.17,0.59,0.25,0.99,0.25h2.13v5.43H783.76z"/>
	</g>
</g>
</svg>
