<?xml version="1.0" encoding="utf-8"?>
<!-- Generator: Adobe Illustrator 28.4.1, SVG Export Plug-In . SVG Version: 6.00 Build 0)  -->
<svg version="1.1" id="Layer_1" xmlns="http://www.w3.org/2000/svg" xmlns:xlink="http://www.w3.org/1999/xlink" x="0px" y="0px"
	 viewBox="0 0 800 60" style="enable-background:new 0 0 800 60;" xml:space="preserve">
<style type="text/css">
	.st0{fill:#E1E1E1;}
	.st1{fill:#0078D7;}
</style>
<g>
	<g>
		<path class="st0" d="M25.37,44.06c-2.08,0-3.96-0.3-5.64-0.91c-1.68-0.61-3.13-1.5-4.36-2.67c-1.22-1.17-2.16-2.63-2.82-4.36
			c-0.66-1.73-0.98-3.72-0.98-5.97s0.33-4.23,0.98-5.95c0.65-1.72,1.59-3.16,2.82-4.34c1.22-1.17,2.67-2.06,4.36-2.67
			c1.68-0.61,3.56-0.91,5.64-0.91c2.4,0,4.53,0.41,6.4,1.24c1.87,0.83,3.37,1.98,4.5,3.47c1.14,1.48,1.8,3.21,2,5.19h-7.6
			c-0.2-0.69-0.54-1.3-1.04-1.84c-0.49-0.53-1.1-0.95-1.82-1.24c-0.72-0.3-1.53-0.44-2.45-0.44c-1.21,0-2.27,0.25-3.19,0.76
			c-0.92,0.51-1.63,1.31-2.13,2.41c-0.51,1.1-0.76,2.54-0.76,4.32c0,1.33,0.15,2.48,0.44,3.45c0.3,0.96,0.71,1.74,1.24,2.33
			c0.53,0.59,1.17,1.03,1.91,1.32c0.74,0.28,1.57,0.43,2.48,0.43c0.86,0,1.66-0.15,2.39-0.45c0.73-0.3,1.35-0.71,1.87-1.24
			c0.52-0.53,0.87-1.15,1.04-1.87h7.6c-0.2,1.98-0.88,3.71-2.04,5.21c-1.16,1.5-2.68,2.66-4.54,3.49S27.71,44.06,25.37,44.06z"/>
		<path class="st0" d="M41.08,43.69V16.66h7.08v10.16h0.3c0.49-1.24,1.28-2.16,2.35-2.76c1.07-0.61,2.28-0.91,3.61-0.91
			c0.99,0,1.91,0.15,2.76,0.45c0.85,0.3,1.6,0.77,2.24,1.41c0.64,0.64,1.14,1.49,1.5,2.54c0.36,1.05,0.54,2.32,0.54,3.8v12.35H54.4
			V32.9c0-0.89-0.1-1.64-0.3-2.24c-0.2-0.61-0.51-1.06-0.93-1.35c-0.42-0.3-0.99-0.45-1.71-0.45c-0.74,0-1.35,0.17-1.83,0.52
			c-0.48,0.35-0.85,0.78-1.09,1.3c-0.25,0.52-0.37,1.05-0.37,1.59v11.42H41.08z"/>
		<path class="st0" d="M65.15,43.69V23.52h6.41l0.26,2.93h0.26c0.44-1.28,1.13-2.14,2.06-2.56c0.93-0.42,1.98-0.63,3.17-0.63
			c0.22,0,0.42,0,0.59,0c0.17,0,0.35,0,0.52,0v6.64c-0.12,0-0.3,0-0.52,0c-0.22,0-0.47,0-0.74,0c-1.29,0-2.29,0.17-3,0.5
			c-0.72,0.33-1.22,0.82-1.5,1.45c-0.28,0.63-0.43,1.4-0.43,2.32v9.53H65.15z"/>
		<path class="st0" d="M90.39,44.06c-1.56,0-2.97-0.23-4.23-0.69c-1.26-0.46-2.35-1.14-3.26-2.04c-0.92-0.9-1.62-2-2.11-3.3
			c-0.49-1.3-0.74-2.77-0.74-4.43c0-2.1,0.4-3.93,1.21-5.49c0.8-1.56,1.98-2.77,3.52-3.65c1.54-0.88,3.42-1.32,5.62-1.32
			c1.56,0,2.97,0.23,4.23,0.69c1.26,0.46,2.35,1.14,3.26,2.04c0.91,0.9,1.62,2,2.11,3.28c0.49,1.29,0.74,2.77,0.74,4.45
			c0,2.08-0.4,3.9-1.21,5.47c-0.8,1.57-1.97,2.79-3.5,3.67C94.5,43.62,92.62,44.06,90.39,44.06z M90.39,38.39
			c0.64,0,1.21-0.16,1.69-0.48s0.85-0.83,1.11-1.54c0.26-0.7,0.39-1.62,0.39-2.76c0-0.87-0.07-1.6-0.22-2.21
			c-0.15-0.61-0.37-1.1-0.65-1.48c-0.28-0.38-0.62-0.66-1-0.83c-0.38-0.17-0.82-0.26-1.32-0.26c-0.64,0-1.2,0.16-1.69,0.48
			s-0.85,0.83-1.11,1.52c-0.26,0.69-0.39,1.62-0.39,2.78c0,0.87,0.07,1.6,0.22,2.21s0.36,1.1,0.65,1.48
			c0.28,0.38,0.62,0.66,1.02,0.83C89.49,38.3,89.92,38.39,90.39,38.39z"/>
		<path class="st0" d="M103.67,43.69V23.52h6.82l0.26,3.3h0.3c0.49-1.24,1.28-2.16,2.35-2.76c1.07-0.61,2.28-0.91,3.61-0.91
			c0.99,0,1.91,0.15,2.76,0.45c0.85,0.3,1.6,0.77,2.24,1.41c0.64,0.64,1.14,1.49,1.5,2.54c0.36,1.05,0.54,2.32,0.54,3.8v12.35h-7.08
			V32.9c0-0.89-0.1-1.64-0.3-2.24c-0.2-0.61-0.51-1.06-0.93-1.35c-0.42-0.3-0.99-0.45-1.71-0.45c-0.74,0-1.35,0.17-1.83,0.52
			c-0.48,0.35-0.85,0.78-1.09,1.3c-0.25,0.52-0.37,1.05-0.37,1.59v11.42H103.67z"/>
		<path class="st0" d="M137,44.06c-1.56,0-2.97-0.23-4.23-0.69c-1.26-0.46-2.35-1.14-3.26-2.04c-0.92-0.9-1.62-2-2.11-3.3
			c-0.49-1.3-0.74-2.77-0.74-4.43c0-2.1,0.4-3.93,1.21-5.49c0.8-1.56,1.98-2.77,3.52-3.65c1.54-0.88,3.42-1.32,5.62-1.32
			c1.56,0,2.97,0.23,4.23,0.69c1.26,0.46,2.35,1.14,3.26,2.04c0.91,0.9,1.62,2,2.11,3.28c0.49,1.29,0.74,2.77,0.74,4.45
			c0,2.08-0.4,3.9-1.21,5.47c-0.8,1.57-1.97,2.79-3.5,3.67C141.1,43.62,139.22,44.06,137,44.06z M137,38.39
			c0.64,0,1.21-0.16,1.69-0.48s0.85-0.83,1.11-1.54c0.26-0.7,0.39-1.62,0.39-2.76c0-0.87-0.07-1.6-0.22-2.21
			c-0.15-0.61-0.37-1.1-0.65-1.48c-0.28-0.38-0.62-0.66-1-0.83c-0.38-0.17-0.82-0.26-1.32-0.26c-0.64,0-1.2,0.16-1.69,0.48
			s-0.85,0.83-1.11,1.52c-0.26,0.69-0.39,1.62-0.39,2.78c0,0.87,0.07,1.6,0.22,2.21s0.36,1.1,0.65,1.48
			c0.28,0.38,0.62,0.66,1.02,0.83C136.09,38.3,136.53,38.39,137,38.39z"/>
		<path class="st1" d="M162.17,43.69l-5.86-27.03h8.3l1.89,12.75l0.89,7.19h0.33l0.93-7.19l1.93-12.75h9.12l1.89,12.05l1.11,7.97
			h0.3l0.89-7.97l1.67-12.05h8.3l-5.86,27.03h-10.23l-1.52-10.57l-0.96-7.97H175l-1.04,7.97l-1.56,10.57H162.17z"/>
		<path class="st1" d="M196.39,43.69V23.52h6.41l0.26,2.93h0.26c0.44-1.28,1.13-2.14,2.06-2.56c0.93-0.42,1.98-0.63,3.17-0.63
			c0.22,0,0.42,0,0.59,0c0.17,0,0.35,0,0.52,0v6.64c-0.12,0-0.3,0-0.52,0c-0.22,0-0.47,0-0.74,0c-1.29,0-2.29,0.17-3,0.5
			c-0.72,0.33-1.22,0.82-1.5,1.45c-0.28,0.63-0.43,1.4-0.43,2.32v9.53H196.39z"/>
		<path class="st1" d="M219.52,44.06c-1.21,0-2.32-0.24-3.32-0.71c-1-0.47-1.86-1.15-2.58-2.04c-0.72-0.89-1.27-1.98-1.65-3.28
			c-0.38-1.3-0.57-2.77-0.57-4.43c0-2.22,0.34-4.12,1.02-5.67c0.68-1.56,1.62-2.74,2.84-3.56c1.21-0.82,2.63-1.22,4.26-1.22
			c0.91,0,1.75,0.14,2.52,0.41c0.77,0.27,1.43,0.65,1.98,1.15c0.56,0.5,0.96,1.08,1.21,1.74h0.37l0.26-2.93h6.75v20.17h-6.75
			l-0.26-2.93h-0.37c-0.37,0.99-1.08,1.79-2.11,2.39C222.08,43.75,220.88,44.06,219.52,44.06z M222.15,38.39
			c0.79,0,1.43-0.16,1.93-0.48c0.49-0.32,0.86-0.78,1.09-1.37c0.23-0.59,0.35-1.29,0.35-2.08v-1.71c0-0.84-0.13-1.55-0.39-2.13
			c-0.26-0.58-0.63-1.03-1.11-1.33s-1.04-0.46-1.69-0.46c-0.89,0-1.61,0.2-2.15,0.59c-0.54,0.4-0.94,0.95-1.19,1.67
			c-0.25,0.72-0.37,1.56-0.37,2.52c0,0.94,0.11,1.77,0.33,2.5c0.22,0.73,0.59,1.29,1.11,1.69S221.29,38.39,222.15,38.39z"/>
		<path class="st1" d="M236.61,49.88V23.52h6.75l0.26,2.93h0.37c0.37-0.99,1.08-1.79,2.11-2.39c1.04-0.61,2.24-0.91,3.6-0.91
			c1.24,0,2.35,0.24,3.34,0.7c0.99,0.47,1.84,1.15,2.56,2.04c0.72,0.89,1.27,1.98,1.65,3.28c0.38,1.3,0.57,2.77,0.57,4.43
			c0,2.2-0.33,4.08-1,5.65c-0.67,1.57-1.61,2.76-2.84,3.58s-2.65,1.22-4.28,1.22c-0.89,0-1.72-0.14-2.5-0.41
			c-0.78-0.27-1.45-0.66-2-1.17c-0.56-0.51-0.96-1.08-1.21-1.72h-0.3v9.12H236.61z M246.88,38.39c0.89,0,1.61-0.2,2.15-0.59
			c0.54-0.4,0.94-0.96,1.19-1.69c0.25-0.73,0.37-1.56,0.37-2.5c0-0.96-0.11-1.8-0.33-2.52c-0.22-0.72-0.59-1.27-1.11-1.67
			c-0.52-0.4-1.21-0.59-2.08-0.59c-0.77,0-1.4,0.16-1.91,0.48c-0.51,0.32-0.88,0.78-1.11,1.37c-0.24,0.59-0.35,1.29-0.35,2.08v1.71
			c0,0.84,0.13,1.55,0.39,2.13c0.26,0.58,0.63,1.03,1.11,1.33C245.68,38.23,246.24,38.39,246.88,38.39z"/>
		<path class="st1" d="M260.86,49.88V23.52h6.75l0.26,2.93h0.37c0.37-0.99,1.08-1.79,2.11-2.39c1.04-0.61,2.24-0.91,3.6-0.91
			c1.24,0,2.35,0.24,3.34,0.7c0.99,0.47,1.84,1.15,2.56,2.04c0.72,0.89,1.27,1.98,1.65,3.28c0.38,1.3,0.57,2.77,0.57,4.43
			c0,2.2-0.33,4.08-1,5.65c-0.67,1.57-1.61,2.76-2.84,3.58s-2.65,1.22-4.28,1.22c-0.89,0-1.72-0.14-2.5-0.41
			c-0.78-0.27-1.45-0.66-2-1.17c-0.56-0.51-0.96-1.08-1.21-1.72h-0.3v9.12H260.86z M271.13,38.39c0.89,0,1.61-0.2,2.15-0.59
			c0.54-0.4,0.94-0.96,1.19-1.69c0.25-0.73,0.37-1.56,0.37-2.5c0-0.96-0.11-1.8-0.33-2.52c-0.22-0.72-0.59-1.27-1.11-1.67
			c-0.52-0.4-1.21-0.59-2.08-0.59c-0.77,0-1.4,0.16-1.91,0.48c-0.51,0.32-0.88,0.78-1.11,1.37c-0.24,0.59-0.35,1.29-0.35,2.08v1.71
			c0,0.84,0.13,1.55,0.39,2.13c0.26,0.58,0.63,1.03,1.11,1.33C269.93,38.23,270.49,38.39,271.13,38.39z"/>
		<path class="st1" d="M294.41,44.06c-2.2,0-4.07-0.43-5.62-1.28c-1.54-0.85-2.73-2.05-3.54-3.6c-0.82-1.54-1.22-3.34-1.22-5.39
			c0-2.2,0.42-4.1,1.26-5.69c0.84-1.59,2.02-2.82,3.54-3.67s3.29-1.28,5.32-1.28c2.45,0,4.45,0.53,6.01,1.58
			c1.56,1.05,2.68,2.49,3.36,4.32c0.68,1.83,0.9,3.91,0.65,6.23H291c-0.02,0.74,0.1,1.38,0.39,1.91c0.28,0.53,0.69,0.93,1.21,1.21
			c0.52,0.27,1.12,0.41,1.82,0.41c0.82,0,1.46-0.14,1.93-0.41c0.47-0.27,0.79-0.63,0.96-1.08h6.67c-0.17,1.36-0.69,2.54-1.54,3.54
			s-1.96,1.79-3.34,2.35C297.73,43.77,296.17,44.06,294.41,44.06z M291,31.64l-0.59-0.59h7.42l-0.63,0.56
			c0.05-0.69-0.05-1.27-0.3-1.74c-0.25-0.47-0.61-0.83-1.08-1.09c-0.47-0.26-1.03-0.39-1.67-0.39c-0.67,0-1.24,0.14-1.72,0.41
			s-0.85,0.65-1.09,1.15C291.09,30.43,290.98,31,291,31.64z"/>
		<path class="st1" d="M307.24,43.69V23.52h6.41l0.26,2.93h0.26c0.44-1.28,1.13-2.14,2.06-2.56c0.93-0.42,1.98-0.63,3.17-0.63
			c0.22,0,0.42,0,0.59,0c0.17,0,0.35,0,0.52,0v6.64c-0.12,0-0.3,0-0.52,0c-0.22,0-0.47,0-0.74,0c-1.29,0-2.29,0.17-3,0.5
			c-0.72,0.33-1.22,0.82-1.5,1.45c-0.28,0.63-0.43,1.4-0.43,2.32v9.53H307.24z"/>
		<path class="st0" d="M343.57,44.06c-2.08,0-3.96-0.3-5.64-0.91c-1.68-0.61-3.13-1.5-4.36-2.67c-1.22-1.17-2.16-2.63-2.82-4.36
			c-0.66-1.73-0.98-3.72-0.98-5.97s0.33-4.23,0.98-5.95c0.65-1.72,1.59-3.16,2.82-4.34c1.22-1.17,2.67-2.06,4.36-2.67
			c1.68-0.61,3.56-0.91,5.64-0.91c2.4,0,4.53,0.41,6.4,1.24c1.87,0.83,3.37,1.98,4.5,3.47c1.14,1.48,1.8,3.21,2,5.19h-7.6
			c-0.2-0.69-0.54-1.3-1.04-1.84c-0.49-0.53-1.1-0.95-1.82-1.24c-0.72-0.3-1.53-0.44-2.45-0.44c-1.21,0-2.27,0.25-3.19,0.76
			c-0.92,0.51-1.63,1.31-2.13,2.41c-0.51,1.1-0.76,2.54-0.76,4.32c0,1.33,0.15,2.48,0.44,3.45c0.3,0.96,0.71,1.74,1.24,2.33
			c0.53,0.59,1.17,1.03,1.91,1.32c0.74,0.28,1.57,0.43,2.48,0.43c0.86,0,1.66-0.15,2.39-0.45c0.73-0.3,1.35-0.71,1.87-1.24
			c0.52-0.53,0.87-1.15,1.04-1.87h7.6c-0.2,1.98-0.88,3.71-2.04,5.21c-1.16,1.5-2.68,2.66-4.54,3.49S345.92,44.06,343.57,44.06z"/>
		<path class="st0" d="M366.45,44.06c-1.21,0-2.32-0.24-3.32-0.71c-1-0.47-1.86-1.15-2.58-2.04c-0.72-0.89-1.27-1.98-1.65-3.28
			c-0.38-1.3-0.57-2.77-0.57-4.43c0-2.22,0.34-4.12,1.02-5.67c0.68-1.56,1.62-2.74,2.84-3.56c1.21-0.82,2.63-1.22,4.26-1.22
			c0.91,0,1.75,0.14,2.52,0.41c0.77,0.27,1.43,0.65,1.98,1.15c0.56,0.5,0.96,1.08,1.21,1.74h0.37l0.26-2.93h6.75v20.17h-6.75
			l-0.26-2.93h-0.37c-0.37,0.99-1.08,1.79-2.11,2.39C369.01,43.75,367.81,44.06,366.45,44.06z M369.08,38.39
			c0.79,0,1.43-0.16,1.93-0.48c0.49-0.32,0.86-0.78,1.09-1.37c0.23-0.59,0.35-1.29,0.35-2.08v-1.71c0-0.84-0.13-1.55-0.39-2.13
			c-0.26-0.58-0.63-1.03-1.11-1.33s-1.04-0.46-1.69-0.46c-0.89,0-1.61,0.2-2.15,0.59c-0.54,0.4-0.94,0.95-1.19,1.67
			c-0.25,0.72-0.37,1.56-0.37,2.52c0,0.94,0.11,1.77,0.33,2.5c0.22,0.73,0.59,1.29,1.11,1.69S368.21,38.39,369.08,38.39z"/>
		<path class="st0" d="M383.54,43.69V23.52h6.41l0.26,2.93h0.26c0.44-1.28,1.13-2.14,2.06-2.56c0.93-0.42,1.98-0.63,3.17-0.63
			c0.22,0,0.42,0,0.59,0c0.17,0,0.35,0,0.52,0v6.64c-0.12,0-0.3,0-0.52,0c-0.22,0-0.47,0-0.74,0c-1.29,0-2.29,0.17-3,0.5
			c-0.72,0.33-1.22,0.82-1.5,1.45c-0.28,0.63-0.43,1.4-0.43,2.32v9.53H383.54z"/>
		<path class="st0" d="M406.67,44.06c-1.21,0-2.32-0.24-3.32-0.71c-1-0.47-1.86-1.15-2.58-2.04c-0.72-0.89-1.27-1.98-1.65-3.28
			c-0.38-1.3-0.57-2.77-0.57-4.43c0-2.22,0.34-4.12,1.02-5.67c0.68-1.56,1.62-2.74,2.84-3.56s2.63-1.22,4.26-1.22
			c0.91,0,1.75,0.14,2.52,0.41c0.77,0.27,1.43,0.65,1.98,1.15c0.56,0.5,0.96,1.08,1.21,1.74h0.3v-9.79h7.08v27.03h-6.75l-0.26-2.93
			h-0.37c-0.37,0.99-1.08,1.79-2.11,2.39C409.23,43.75,408.03,44.06,406.67,44.06z M409.31,38.39c0.79,0,1.43-0.16,1.93-0.48
			c0.49-0.32,0.86-0.78,1.09-1.37c0.23-0.59,0.35-1.29,0.35-2.08v-1.71c0-0.84-0.13-1.55-0.39-2.13s-0.63-1.03-1.11-1.33
			c-0.48-0.31-1.04-0.46-1.69-0.46c-0.89,0-1.61,0.2-2.15,0.59c-0.54,0.4-0.94,0.95-1.19,1.67c-0.25,0.72-0.37,1.56-0.37,2.52
			c0,0.94,0.11,1.77,0.33,2.5c0.22,0.73,0.59,1.29,1.11,1.69C407.75,38.19,408.44,38.39,409.31,38.39z"/>
		<path class="st0" d="M432.88,43.69v-14.5h-2.97v-5.67h2.97v-1.33c0-1.75,0.57-3.11,1.72-4.08s2.77-1.45,4.88-1.45h4.56v4.56h-2.63
			c-0.42,0-0.77,0.09-1.04,0.26c-0.27,0.17-0.41,0.52-0.41,1.04v1h3.78v5.67h-3.78v14.5H432.88z"/>
		<path class="st0" d="M455.65,44.06c-1.56,0-2.97-0.23-4.23-0.69s-2.35-1.14-3.26-2.04c-0.91-0.9-1.62-2-2.11-3.3
			c-0.49-1.3-0.74-2.77-0.74-4.43c0-2.1,0.4-3.93,1.21-5.49c0.8-1.56,1.98-2.77,3.52-3.65c1.54-0.88,3.42-1.32,5.62-1.32
			c1.56,0,2.97,0.23,4.23,0.69c1.26,0.46,2.35,1.14,3.26,2.04c0.91,0.9,1.62,2,2.11,3.28c0.49,1.29,0.74,2.77,0.74,4.45
			c0,2.08-0.4,3.9-1.21,5.47c-0.8,1.57-1.97,2.79-3.5,3.67C459.75,43.62,457.87,44.06,455.65,44.06z M455.65,38.39
			c0.64,0,1.21-0.16,1.69-0.48c0.48-0.32,0.85-0.83,1.11-1.54c0.26-0.7,0.39-1.62,0.39-2.76c0-0.87-0.07-1.6-0.22-2.21
			s-0.36-1.1-0.65-1.48c-0.28-0.38-0.62-0.66-1-0.83c-0.38-0.17-0.82-0.26-1.32-0.26c-0.64,0-1.21,0.16-1.69,0.48
			c-0.48,0.32-0.85,0.83-1.11,1.52s-0.39,1.62-0.39,2.78c0,0.87,0.07,1.6,0.22,2.21s0.36,1.1,0.65,1.48
			c0.28,0.38,0.62,0.66,1.02,0.83C454.75,38.3,455.18,38.39,455.65,38.39z"/>
		<path class="st0" d="M468.92,43.69V23.52h6.41l0.26,2.93h0.26c0.45-1.28,1.13-2.14,2.06-2.56c0.93-0.42,1.98-0.63,3.17-0.63
			c0.22,0,0.42,0,0.59,0c0.17,0,0.35,0,0.52,0v6.64c-0.12,0-0.3,0-0.52,0s-0.47,0-0.74,0c-1.29,0-2.29,0.17-3,0.5
			c-0.72,0.33-1.22,0.82-1.5,1.45c-0.28,0.63-0.43,1.4-0.43,2.32v9.53H468.92z"/>
		<path class="st0" d="M492.61,43.69V16.66h7.53v27.03H492.61z M498.73,33.2v-6.38h13.12v6.38H498.73z M510.44,43.69V16.66h7.53
			v27.03H510.44z"/>
		<path class="st0" d="M531.43,44.06c-1.56,0-2.97-0.23-4.23-0.69s-2.35-1.14-3.26-2.04c-0.91-0.9-1.62-2-2.11-3.3
			c-0.49-1.3-0.74-2.77-0.74-4.43c0-2.1,0.4-3.93,1.21-5.49c0.8-1.56,1.98-2.77,3.52-3.65c1.54-0.88,3.42-1.32,5.62-1.32
			c1.56,0,2.97,0.23,4.23,0.69c1.26,0.46,2.35,1.14,3.26,2.04c0.91,0.9,1.62,2,2.11,3.28c0.49,1.29,0.74,2.77,0.74,4.45
			c0,2.08-0.4,3.9-1.21,5.47c-0.8,1.57-1.97,2.79-3.5,3.67C535.53,43.62,533.65,44.06,531.43,44.06z M531.43,38.39
			c0.64,0,1.21-0.16,1.69-0.48c0.48-0.32,0.85-0.83,1.11-1.54c0.26-0.7,0.39-1.62,0.39-2.76c0-0.87-0.07-1.6-0.22-2.21
			s-0.36-1.1-0.65-1.48c-0.28-0.38-0.62-0.66-1-0.83c-0.38-0.17-0.82-0.26-1.32-0.26c-0.64,0-1.21,0.16-1.69,0.48
			c-0.48,0.32-0.85,0.83-1.11,1.52s-0.39,1.62-0.39,2.78c0,0.87,0.07,1.6,0.22,2.21s0.36,1.1,0.65,1.48
			c0.28,0.38,0.62,0.66,1.02,0.83C530.52,38.3,530.96,38.39,531.43,38.39z"/>
		<path class="st0" d="M544.7,43.69V23.52h6.86l0.22,3.3h0.3c0.45-1.24,1.19-2.16,2.22-2.76c1.04-0.61,2.19-0.91,3.45-0.91
			c1.31,0,2.54,0.31,3.69,0.93s2,1.73,2.54,3.34h0.3c0.42-1.43,1.21-2.5,2.35-3.21c1.15-0.7,2.45-1.06,3.91-1.06
			c1.26,0,2.4,0.27,3.41,0.8c1.01,0.53,1.82,1.4,2.43,2.6c0.61,1.2,0.91,2.8,0.91,4.8v12.35h-7.08V32.9c0-0.89-0.09-1.64-0.26-2.24
			c-0.17-0.61-0.46-1.06-0.85-1.35c-0.4-0.3-0.92-0.45-1.56-0.45c-0.67,0-1.22,0.17-1.67,0.52c-0.45,0.35-0.78,0.78-1,1.3
			s-0.33,1.05-0.33,1.59v11.42h-7.08V32.9c0-0.89-0.09-1.64-0.26-2.24c-0.17-0.61-0.46-1.06-0.85-1.35c-0.4-0.3-0.92-0.45-1.56-0.45
			c-0.67,0-1.22,0.17-1.67,0.52c-0.45,0.35-0.78,0.78-1,1.3s-0.33,1.05-0.33,1.59v11.42H544.7z"/>
		<path class="st0" d="M590.26,44.06c-2.2,0-4.07-0.43-5.62-1.28c-1.55-0.85-2.73-2.05-3.54-3.6c-0.82-1.54-1.22-3.34-1.22-5.39
			c0-2.2,0.42-4.1,1.26-5.69c0.84-1.59,2.02-2.82,3.54-3.67c1.52-0.85,3.29-1.28,5.32-1.28c2.45,0,4.45,0.53,6.01,1.58
			c1.56,1.05,2.67,2.49,3.35,4.32c0.68,1.83,0.9,3.91,0.65,6.23h-13.16c-0.02,0.74,0.11,1.38,0.39,1.91
			c0.28,0.53,0.69,0.93,1.21,1.21c0.52,0.27,1.12,0.41,1.82,0.41c0.82,0,1.46-0.14,1.93-0.41c0.47-0.27,0.79-0.63,0.96-1.08h6.67
			c-0.17,1.36-0.69,2.54-1.54,3.54c-0.85,1-1.96,1.79-3.34,2.35C593.58,43.77,592.02,44.06,590.26,44.06z M586.85,31.64l-0.59-0.59
			h7.42l-0.63,0.56c0.05-0.69-0.05-1.27-0.3-1.74c-0.25-0.47-0.61-0.83-1.08-1.09c-0.47-0.26-1.03-0.39-1.67-0.39
			c-0.67,0-1.24,0.14-1.72,0.41c-0.48,0.27-0.85,0.65-1.09,1.15C586.94,30.43,586.83,31,586.85,31.64z"/>
		<path class="st0" d="M609.02,43.69l8.42-27.03h10.71l8.42,27.03h-7.82l-4.89-17.87l-0.93-3.52h-0.26l-0.93,3.52l-4.89,17.87
			H609.02z M617.66,38.87l1.67-5.71h6.93l1.67,5.71H617.66z"/>
		<path class="st0" d="M647.06,44.06c-1.41,0-2.68-0.16-3.8-0.48c-1.12-0.32-2.09-0.78-2.89-1.37c-0.8-0.59-1.43-1.3-1.87-2.13
			c-0.45-0.83-0.67-1.74-0.67-2.72h6.97c0.05,0.42,0.18,0.77,0.39,1.04c0.21,0.27,0.49,0.47,0.85,0.59
			c0.36,0.12,0.76,0.18,1.21,0.18c0.69,0,1.2-0.12,1.52-0.35c0.32-0.24,0.48-0.55,0.48-0.95c0-0.37-0.1-0.64-0.3-0.82
			c-0.2-0.17-0.52-0.31-0.96-0.43c-0.44-0.11-1.05-0.22-1.82-0.32c-1.8-0.27-3.29-0.64-4.45-1.11c-1.16-0.47-2.02-1.13-2.58-1.98
			c-0.56-0.85-0.83-1.95-0.83-3.28c0-1.36,0.38-2.55,1.13-3.56c0.75-1.01,1.81-1.8,3.17-2.37c1.36-0.57,2.94-0.85,4.75-0.85
			c1.68,0,3.16,0.27,4.43,0.8c1.27,0.53,2.28,1.27,3.02,2.22c0.74,0.95,1.15,2.06,1.22,3.32h-6.97c0-0.32-0.08-0.59-0.24-0.8
			c-0.16-0.21-0.38-0.37-0.67-0.48c-0.28-0.11-0.62-0.17-1.02-0.17c-0.52,0-0.94,0.11-1.26,0.31c-0.32,0.21-0.48,0.53-0.48,0.95
			c0,0.35,0.12,0.61,0.35,0.8c0.23,0.19,0.63,0.34,1.19,0.46c0.56,0.12,1.29,0.25,2.21,0.37c1.75,0.22,3.17,0.58,4.25,1.08
			c1.08,0.5,1.85,1.16,2.34,2c0.48,0.84,0.72,1.92,0.72,3.23c0,1.46-0.39,2.69-1.17,3.71c-0.78,1.01-1.87,1.79-3.28,2.32
			C650.58,43.79,648.94,44.06,647.06,44.06z"/>
		<path class="st0" d="M667.38,44.06c-1.41,0-2.68-0.16-3.8-0.48c-1.12-0.32-2.09-0.78-2.89-1.37c-0.8-0.59-1.43-1.3-1.87-2.13
			c-0.45-0.83-0.67-1.74-0.67-2.72h6.97c0.05,0.42,0.18,0.77,0.39,1.04c0.21,0.27,0.49,0.47,0.85,0.59
			c0.36,0.12,0.76,0.18,1.21,0.18c0.69,0,1.2-0.12,1.52-0.35c0.32-0.24,0.48-0.55,0.48-0.95c0-0.37-0.1-0.64-0.3-0.82
			c-0.2-0.17-0.52-0.31-0.96-0.43c-0.44-0.11-1.05-0.22-1.82-0.32c-1.8-0.27-3.29-0.64-4.45-1.11c-1.16-0.47-2.02-1.13-2.58-1.98
			c-0.56-0.85-0.83-1.95-0.83-3.28c0-1.36,0.38-2.55,1.13-3.56c0.75-1.01,1.81-1.8,3.17-2.37c1.36-0.57,2.94-0.85,4.75-0.85
			c1.68,0,3.16,0.27,4.43,0.8c1.27,0.53,2.28,1.27,3.02,2.22c0.74,0.95,1.15,2.06,1.22,3.32h-6.97c0-0.32-0.08-0.59-0.24-0.8
			c-0.16-0.21-0.38-0.37-0.67-0.48c-0.28-0.11-0.62-0.17-1.02-0.17c-0.52,0-0.94,0.11-1.26,0.31c-0.32,0.21-0.48,0.53-0.48,0.95
			c0,0.35,0.12,0.61,0.35,0.8c0.23,0.19,0.63,0.34,1.19,0.46c0.56,0.12,1.29,0.25,2.21,0.37c1.75,0.22,3.17,0.58,4.25,1.08
			c1.08,0.5,1.85,1.16,2.34,2c0.48,0.84,0.72,1.92,0.72,3.23c0,1.46-0.39,2.69-1.17,3.71c-0.78,1.01-1.87,1.79-3.28,2.32
			C670.9,43.79,669.26,44.06,667.38,44.06z"/>
		<path class="st0" d="M683.21,21.85c-1.04,0-1.9-0.27-2.58-0.8c-0.68-0.53-1.02-1.29-1.02-2.28c0-0.99,0.34-1.75,1.02-2.28
			c0.68-0.53,1.54-0.8,2.58-0.8s1.9,0.27,2.58,0.8c0.68,0.53,1.02,1.29,1.02,2.28c0,0.99-0.34,1.75-1.02,2.28
			C685.1,21.58,684.25,21.85,683.21,21.85z M679.65,43.69V23.52h7.08v20.17H679.65z"/>
		<path class="st0" d="M698.78,44.06c-1.41,0-2.68-0.16-3.8-0.48c-1.12-0.32-2.09-0.78-2.89-1.37c-0.8-0.59-1.43-1.3-1.87-2.13
			c-0.45-0.83-0.67-1.74-0.67-2.72h6.97c0.05,0.42,0.18,0.77,0.39,1.04c0.21,0.27,0.49,0.47,0.85,0.59
			c0.36,0.12,0.76,0.18,1.21,0.18c0.69,0,1.2-0.12,1.52-0.35c0.32-0.24,0.48-0.55,0.48-0.95c0-0.37-0.1-0.64-0.3-0.82
			c-0.2-0.17-0.52-0.31-0.96-0.43c-0.44-0.11-1.05-0.22-1.82-0.32c-1.8-0.27-3.29-0.64-4.45-1.11c-1.16-0.47-2.02-1.13-2.58-1.98
			c-0.56-0.85-0.83-1.95-0.83-3.28c0-1.36,0.38-2.55,1.13-3.56c0.75-1.01,1.81-1.8,3.17-2.37c1.36-0.57,2.94-0.85,4.75-0.85
			c1.68,0,3.16,0.27,4.43,0.8c1.27,0.53,2.28,1.27,3.02,2.22c0.74,0.95,1.15,2.06,1.22,3.32h-6.97c0-0.32-0.08-0.59-0.24-0.8
			c-0.16-0.21-0.38-0.37-0.67-0.48c-0.28-0.11-0.62-0.17-1.02-0.17c-0.52,0-0.94,0.11-1.26,0.31c-0.32,0.21-0.48,0.53-0.48,0.95
			c0,0.35,0.12,0.61,0.35,0.8c0.23,0.19,0.63,0.34,1.19,0.46c0.56,0.12,1.29,0.25,2.21,0.37c1.75,0.22,3.17,0.58,4.25,1.08
			c1.08,0.5,1.85,1.16,2.34,2c0.48,0.84,0.72,1.92,0.72,3.23c0,1.46-0.39,2.69-1.17,3.71c-0.78,1.01-1.87,1.79-3.28,2.32
			C702.3,43.79,700.66,44.06,698.78,44.06z"/>
		<path class="st0" d="M718.65,43.69c-1.95,0-3.37-0.45-4.26-1.35c-0.89-0.9-1.33-2.33-1.33-4.28v-8.86h-3.37v-5.67h3.37v-5.15
			l7.08-0.59v5.75h3.67v5.67h-3.67v7.53c0,0.52,0.14,0.87,0.41,1.04c0.27,0.17,0.62,0.26,1.04,0.26h2.22v5.67H718.65z"/>
		<path class="st0" d="M734.26,44.06c-1.21,0-2.32-0.24-3.32-0.71c-1-0.47-1.86-1.15-2.58-2.04c-0.72-0.89-1.27-1.98-1.65-3.28
			c-0.38-1.3-0.57-2.77-0.57-4.43c0-2.22,0.34-4.12,1.02-5.67s1.62-2.74,2.84-3.56s2.63-1.22,4.26-1.22c0.91,0,1.75,0.14,2.52,0.41
			c0.77,0.27,1.43,0.65,1.98,1.15c0.56,0.5,0.96,1.08,1.21,1.74h0.37l0.26-2.93h6.75v20.17h-6.75l-0.26-2.93h-0.37
			c-0.37,0.99-1.08,1.79-2.11,2.39C736.82,43.75,735.62,44.06,734.26,44.06z M736.89,38.39c0.79,0,1.43-0.16,1.93-0.48
			c0.49-0.32,0.86-0.78,1.09-1.37c0.23-0.59,0.35-1.29,0.35-2.08v-1.71c0-0.84-0.13-1.55-0.39-2.13s-0.63-1.03-1.11-1.33
			c-0.48-0.31-1.04-0.46-1.69-0.46c-0.89,0-1.61,0.2-2.15,0.59c-0.54,0.4-0.94,0.95-1.19,1.67c-0.25,0.72-0.37,1.56-0.37,2.52
			c0,0.94,0.11,1.77,0.33,2.5c0.22,0.73,0.59,1.29,1.11,1.69C735.33,38.19,736.03,38.39,736.89,38.39z"/>
		<path class="st0" d="M751.35,43.69V23.52h6.82l0.26,3.3h0.3c0.49-1.24,1.28-2.16,2.35-2.76c1.08-0.61,2.28-0.91,3.61-0.91
			c0.99,0,1.91,0.15,2.76,0.45c0.85,0.3,1.6,0.77,2.24,1.41c0.64,0.64,1.14,1.49,1.5,2.54c0.36,1.05,0.54,2.32,0.54,3.8v12.35h-7.08
			V32.9c0-0.89-0.1-1.64-0.3-2.24c-0.2-0.61-0.51-1.06-0.93-1.35c-0.42-0.3-0.99-0.45-1.71-0.45c-0.74,0-1.35,0.17-1.83,0.52
			c-0.48,0.35-0.85,0.78-1.09,1.3s-0.37,1.05-0.37,1.59v11.42H751.35z"/>
		<path class="st0" d="M783.01,43.69c-1.95,0-3.37-0.45-4.26-1.35c-0.89-0.9-1.33-2.33-1.33-4.28v-8.86h-3.37v-5.67h3.37v-5.15
			l7.08-0.59v5.75h3.67v5.67h-3.67v7.53c0,0.52,0.14,0.87,0.41,1.04c0.27,0.17,0.62,0.26,1.04,0.26h2.22v5.67H783.01z"/>
	</g>
</g>
</svg>
